%TF.GenerationSoftware,KiCad,Pcbnew,(5.1.9)-1*%
%TF.CreationDate,2021-03-26T23:06:09+01:00*%
%TF.ProjectId,jarduino2_ihm,6a617264-7569-46e6-9f32-5f69686d2e6b,rev?*%
%TF.SameCoordinates,Original*%
%TF.FileFunction,Copper,L2,Bot*%
%TF.FilePolarity,Positive*%
%FSLAX46Y46*%
G04 Gerber Fmt 4.6, Leading zero omitted, Abs format (unit mm)*
G04 Created by KiCad (PCBNEW (5.1.9)-1) date 2021-03-26 23:06:09*
%MOMM*%
%LPD*%
G01*
G04 APERTURE LIST*
%TA.AperFunction,ComponentPad*%
%ADD10O,1.700000X1.700000*%
%TD*%
%TA.AperFunction,ComponentPad*%
%ADD11R,1.700000X1.700000*%
%TD*%
%TA.AperFunction,ComponentPad*%
%ADD12O,1.600000X1.600000*%
%TD*%
%TA.AperFunction,ComponentPad*%
%ADD13C,1.600000*%
%TD*%
%TA.AperFunction,ComponentPad*%
%ADD14C,1.800000*%
%TD*%
%TA.AperFunction,ComponentPad*%
%ADD15R,1.800000X1.800000*%
%TD*%
%TA.AperFunction,Conductor*%
%ADD16C,1.000000*%
%TD*%
%TA.AperFunction,Conductor*%
%ADD17C,0.254000*%
%TD*%
%TA.AperFunction,Conductor*%
%ADD18C,0.100000*%
%TD*%
G04 APERTURE END LIST*
D10*
%TO.P,J4,4*%
%TO.N,Net-(D7-Pad2)*%
X190620000Y-100000000D03*
%TO.P,J4,3*%
%TO.N,Net-(D6-Pad2)*%
X188080000Y-100000000D03*
%TO.P,J4,2*%
%TO.N,Net-(J4-Pad2)*%
X185540000Y-100000000D03*
D11*
%TO.P,J4,1*%
%TO.N,Net-(J4-Pad1)*%
X183000000Y-100000000D03*
%TD*%
D10*
%TO.P,SW5,2*%
%TO.N,Net-(J4-Pad2)*%
X182000000Y-108460000D03*
D11*
%TO.P,SW5,1*%
%TO.N,GND*%
X182000000Y-111000000D03*
%TD*%
D10*
%TO.P,SW4,2*%
%TO.N,Net-(J4-Pad1)*%
X175000000Y-108460000D03*
D11*
%TO.P,SW4,1*%
%TO.N,GND*%
X175000000Y-111000000D03*
%TD*%
D10*
%TO.P,SW3,2*%
%TO.N,Net-(J3-Pad1)*%
X150000000Y-109460000D03*
D11*
%TO.P,SW3,1*%
%TO.N,Net-(J3-Pad2)*%
X150000000Y-112000000D03*
%TD*%
D10*
%TO.P,SW2,2*%
%TO.N,Net-(J2-Pad2)*%
X110000000Y-107000000D03*
D11*
%TO.P,SW2,1*%
%TO.N,Net-(J1-Pad2)*%
X110000000Y-109540000D03*
%TD*%
D10*
%TO.P,SW1,2*%
%TO.N,Net-(J2-Pad1)*%
X110000000Y-116460000D03*
D11*
%TO.P,SW1,1*%
%TO.N,Net-(J1-Pad1)*%
X110000000Y-119000000D03*
%TD*%
D12*
%TO.P,R2,2*%
%TO.N,Net-(J2-Pad1)*%
X123680000Y-98000000D03*
D13*
%TO.P,R2,1*%
%TO.N,Net-(D2-Pad2)*%
X144000000Y-98000000D03*
%TD*%
D12*
%TO.P,R1,2*%
%TO.N,Net-(J2-Pad2)*%
X117680000Y-103000000D03*
D13*
%TO.P,R1,1*%
%TO.N,Net-(D1-Pad2)*%
X138000000Y-103000000D03*
%TD*%
D10*
%TO.P,J3,5*%
%TO.N,Net-(D5-Pad2)*%
X166160000Y-108000000D03*
%TO.P,J3,4*%
%TO.N,Net-(D4-Pad2)*%
X163620000Y-108000000D03*
%TO.P,J3,3*%
%TO.N,Net-(D3-Pad2)*%
X161080000Y-108000000D03*
%TO.P,J3,2*%
%TO.N,Net-(J3-Pad2)*%
X158540000Y-108000000D03*
D11*
%TO.P,J3,1*%
%TO.N,Net-(J3-Pad1)*%
X156000000Y-108000000D03*
%TD*%
D10*
%TO.P,J2,3*%
%TO.N,GND*%
X107920000Y-98000000D03*
%TO.P,J2,2*%
%TO.N,Net-(J2-Pad2)*%
X110460000Y-98000000D03*
D11*
%TO.P,J2,1*%
%TO.N,Net-(J2-Pad1)*%
X113000000Y-98000000D03*
%TD*%
D10*
%TO.P,J1,3*%
%TO.N,GND*%
X101000000Y-97920000D03*
%TO.P,J1,2*%
%TO.N,Net-(J1-Pad2)*%
X101000000Y-100460000D03*
D11*
%TO.P,J1,1*%
%TO.N,Net-(J1-Pad1)*%
X101000000Y-103000000D03*
%TD*%
D14*
%TO.P,D7,2*%
%TO.N,Net-(D7-Pad2)*%
X203540000Y-118000000D03*
D15*
%TO.P,D7,1*%
%TO.N,GND*%
X201000000Y-118000000D03*
%TD*%
D14*
%TO.P,D6,2*%
%TO.N,Net-(D6-Pad2)*%
X182540000Y-118000000D03*
D15*
%TO.P,D6,1*%
%TO.N,GND*%
X180000000Y-118000000D03*
%TD*%
D14*
%TO.P,D5,2*%
%TO.N,Net-(D5-Pad2)*%
X161540000Y-118000000D03*
D15*
%TO.P,D5,1*%
%TO.N,GND*%
X159000000Y-118000000D03*
%TD*%
D14*
%TO.P,D4,2*%
%TO.N,Net-(D4-Pad2)*%
X140540000Y-118000000D03*
D15*
%TO.P,D4,1*%
%TO.N,GND*%
X138000000Y-118000000D03*
%TD*%
D14*
%TO.P,D3,2*%
%TO.N,Net-(D3-Pad2)*%
X120540000Y-118000000D03*
D15*
%TO.P,D3,1*%
%TO.N,GND*%
X118000000Y-118000000D03*
%TD*%
D14*
%TO.P,D2,2*%
%TO.N,Net-(D2-Pad2)*%
X140540000Y-110000000D03*
D15*
%TO.P,D2,1*%
%TO.N,GND*%
X138000000Y-110000000D03*
%TD*%
D14*
%TO.P,D1,2*%
%TO.N,Net-(D1-Pad2)*%
X120540000Y-110000000D03*
D15*
%TO.P,D1,1*%
%TO.N,GND*%
X118000000Y-110000000D03*
%TD*%
D16*
%TO.N,Net-(D1-Pad2)*%
X120540000Y-110000000D02*
X122000000Y-110000000D01*
X129000000Y-103000000D02*
X138000000Y-103000000D01*
X122000000Y-110000000D02*
X129000000Y-103000000D01*
%TO.N,GND*%
X107840000Y-97920000D02*
X107920000Y-98000000D01*
X101000000Y-97920000D02*
X107840000Y-97920000D01*
X118000000Y-110000000D02*
X118000000Y-118000000D01*
X118000000Y-110000000D02*
X118000000Y-112000000D01*
X118000000Y-112000000D02*
X119000000Y-113000000D01*
X119000000Y-113000000D02*
X122000000Y-113000000D01*
X122000000Y-113000000D02*
X124000000Y-111000000D01*
X124000000Y-111000000D02*
X129000000Y-111000000D01*
X130000000Y-110000000D02*
X138000000Y-110000000D01*
X129000000Y-111000000D02*
X130000000Y-110000000D01*
X138000000Y-118000000D02*
X130000000Y-118000000D01*
X130000000Y-118000000D02*
X126000000Y-122000000D01*
X118000000Y-121000000D02*
X118000000Y-118000000D01*
X119000000Y-122000000D02*
X118000000Y-121000000D01*
X101000000Y-97920000D02*
X98080000Y-97920000D01*
X95725010Y-100274990D02*
X95725010Y-118725010D01*
X98080000Y-97920000D02*
X95725010Y-100274990D01*
X99000000Y-122000000D02*
X120000000Y-122000000D01*
X95725010Y-118725010D02*
X99000000Y-122000000D01*
X120000000Y-122000000D02*
X119000000Y-122000000D01*
X126000000Y-122000000D02*
X120000000Y-122000000D01*
X138000000Y-118000000D02*
X138000000Y-121000000D01*
X138000000Y-121000000D02*
X139000000Y-122000000D01*
X155000000Y-122000000D02*
X159000000Y-118000000D01*
X139000000Y-122000000D02*
X155000000Y-122000000D01*
X159000000Y-118000000D02*
X159000000Y-119000000D01*
X159000000Y-119000000D02*
X162000000Y-122000000D01*
X176000000Y-122000000D02*
X180000000Y-118000000D01*
X162000000Y-122000000D02*
X176000000Y-122000000D01*
X182000000Y-111000000D02*
X175000000Y-111000000D01*
X175000000Y-113000000D02*
X180000000Y-118000000D01*
X175000000Y-111000000D02*
X175000000Y-113000000D01*
X201000000Y-120000000D02*
X199000000Y-122000000D01*
X176000000Y-122000000D02*
X199000000Y-122000000D01*
X201000000Y-120000000D02*
X201000000Y-118000000D01*
%TO.N,Net-(D2-Pad2)*%
X140540000Y-110000000D02*
X140540000Y-108460000D01*
X144000000Y-105000000D02*
X144000000Y-98000000D01*
X140540000Y-108460000D02*
X144000000Y-105000000D01*
%TO.N,Net-(D3-Pad2)*%
X141000000Y-114000000D02*
X124540000Y-114000000D01*
X146000000Y-109000000D02*
X141000000Y-114000000D01*
X146000000Y-105000000D02*
X146000000Y-109000000D01*
X149000000Y-102000000D02*
X146000000Y-105000000D01*
X158000000Y-102000000D02*
X149000000Y-102000000D01*
X161080000Y-105080000D02*
X158000000Y-102000000D01*
X124540000Y-114000000D02*
X120540000Y-118000000D01*
X161080000Y-108000000D02*
X161080000Y-105080000D01*
%TO.N,Net-(D4-Pad2)*%
X153000000Y-118000000D02*
X140540000Y-118000000D01*
X158000000Y-113000000D02*
X153000000Y-118000000D01*
X158000000Y-113000000D02*
X158620000Y-113000000D01*
X158620000Y-113000000D02*
X160750000Y-110870000D01*
X160750000Y-110870000D02*
X162020000Y-110870000D01*
X162020000Y-110870000D02*
X163620000Y-109270000D01*
X163620000Y-108000000D02*
X163620000Y-109270000D01*
%TO.N,Net-(D5-Pad2)*%
X166160000Y-108000000D02*
X166160000Y-114840000D01*
X163000000Y-118000000D02*
X161540000Y-118000000D01*
X166160000Y-114840000D02*
X163000000Y-118000000D01*
%TO.N,Net-(D6-Pad2)*%
X182540000Y-118000000D02*
X185700000Y-118000000D01*
X188080000Y-115620000D02*
X188080000Y-100000000D01*
X185700000Y-118000000D02*
X188080000Y-115620000D01*
%TO.N,Net-(D7-Pad2)*%
X190620000Y-100000000D02*
X193670000Y-100000000D01*
X193670000Y-100000000D02*
X200570000Y-106900000D01*
X200570000Y-106900000D02*
X200570000Y-110460000D01*
X203540000Y-113430000D02*
X203540000Y-118000000D01*
X200570000Y-110460000D02*
X203540000Y-113430000D01*
%TO.N,Net-(J1-Pad2)*%
X101000000Y-100460000D02*
X105460000Y-100460000D01*
X105460000Y-100460000D02*
X107000000Y-102000000D01*
X107000000Y-102000000D02*
X107000000Y-109000000D01*
X107540000Y-109540000D02*
X110000000Y-109540000D01*
X107000000Y-109000000D02*
X107540000Y-109540000D01*
%TO.N,Net-(J1-Pad1)*%
X101000000Y-103000000D02*
X104000000Y-103000000D01*
X104000000Y-103000000D02*
X105000000Y-104000000D01*
X110000000Y-119000000D02*
X108700000Y-119000000D01*
X108700000Y-119000000D02*
X107600000Y-117900000D01*
X107600000Y-112590000D02*
X105000000Y-109990000D01*
X107600000Y-117900000D02*
X107600000Y-112590000D01*
X105000000Y-104000000D02*
X105000000Y-109990000D01*
%TO.N,Net-(J2-Pad2)*%
X110460000Y-98000000D02*
X110460000Y-101460000D01*
X112000000Y-103000000D02*
X117680000Y-103000000D01*
X110460000Y-101460000D02*
X112000000Y-103000000D01*
X110000000Y-107000000D02*
X110000000Y-105000000D01*
X110000000Y-105000000D02*
X112000000Y-103000000D01*
%TO.N,Net-(J2-Pad1)*%
X117940000Y-98000000D02*
X123680000Y-98000000D01*
X115000000Y-98000000D02*
X117940000Y-98000000D01*
X119270000Y-100530000D02*
X116530000Y-100530000D01*
X121075000Y-103115000D02*
X121075000Y-102335000D01*
X119190000Y-105000000D02*
X121075000Y-103115000D01*
X115000000Y-105000000D02*
X119190000Y-105000000D01*
X113000000Y-107000000D02*
X115000000Y-105000000D01*
X121075000Y-102335000D02*
X119270000Y-100530000D01*
X113000000Y-111330000D02*
X113000000Y-107000000D01*
X110000000Y-114330000D02*
X113000000Y-111330000D01*
X110000000Y-116460000D02*
X110000000Y-114330000D01*
X114080000Y-98000000D02*
X115000000Y-98000000D01*
X113000000Y-98000000D02*
X114080000Y-98000000D01*
X116530000Y-100530000D02*
X113540000Y-100530000D01*
X113000000Y-99990000D02*
X113000000Y-98000000D01*
X113540000Y-100530000D02*
X113000000Y-99990000D01*
%TO.N,Net-(J3-Pad2)*%
X158540000Y-108000000D02*
X158540000Y-110460000D01*
X158540000Y-110460000D02*
X158000000Y-111000000D01*
X158000000Y-111000000D02*
X154000000Y-111000000D01*
X154000000Y-111000000D02*
X153000000Y-112000000D01*
X153000000Y-112000000D02*
X150000000Y-112000000D01*
%TO.N,Net-(J3-Pad1)*%
X150000000Y-109460000D02*
X151460000Y-108000000D01*
X151460000Y-108000000D02*
X156000000Y-108000000D01*
%TO.N,Net-(J4-Pad2)*%
X185540000Y-100000000D02*
X185540000Y-102580000D01*
X182000000Y-106120000D02*
X182000000Y-108460000D01*
X185540000Y-102580000D02*
X182000000Y-106120000D01*
%TO.N,Net-(J4-Pad1)*%
X175000000Y-108460000D02*
X175000000Y-103000000D01*
X178000000Y-100000000D02*
X183000000Y-100000000D01*
X175000000Y-103000000D02*
X178000000Y-100000000D01*
%TD*%
D17*
%TO.N,GND*%
X213340001Y-123340000D02*
X95660000Y-123340000D01*
X95660000Y-109639297D01*
X96337720Y-109639297D01*
X96337720Y-110360703D01*
X96478460Y-111068248D01*
X96754530Y-111734740D01*
X97155322Y-112334567D01*
X97665433Y-112844678D01*
X98265260Y-113245470D01*
X98931752Y-113521540D01*
X99639297Y-113662280D01*
X100360703Y-113662280D01*
X101068248Y-113521540D01*
X101734740Y-113245470D01*
X102334567Y-112844678D01*
X102844678Y-112334567D01*
X103245470Y-111734740D01*
X103521540Y-111068248D01*
X103662280Y-110360703D01*
X103662280Y-109639297D01*
X103521540Y-108931752D01*
X103245470Y-108265260D01*
X102844678Y-107665433D01*
X102334567Y-107155322D01*
X101734740Y-106754530D01*
X101068248Y-106478460D01*
X100360703Y-106337720D01*
X99639297Y-106337720D01*
X98931752Y-106478460D01*
X98265260Y-106754530D01*
X97665433Y-107155322D01*
X97155322Y-107665433D01*
X96754530Y-108265260D01*
X96478460Y-108931752D01*
X96337720Y-109639297D01*
X95660000Y-109639297D01*
X95660000Y-102150000D01*
X99511928Y-102150000D01*
X99511928Y-103850000D01*
X99524188Y-103974482D01*
X99560498Y-104094180D01*
X99619463Y-104204494D01*
X99698815Y-104301185D01*
X99795506Y-104380537D01*
X99905820Y-104439502D01*
X100025518Y-104475812D01*
X100150000Y-104488072D01*
X101850000Y-104488072D01*
X101974482Y-104475812D01*
X102094180Y-104439502D01*
X102204494Y-104380537D01*
X102301185Y-104301185D01*
X102380537Y-104204494D01*
X102417683Y-104135000D01*
X103529868Y-104135000D01*
X103865000Y-104470132D01*
X103865001Y-109934239D01*
X103859509Y-109990000D01*
X103881423Y-110212498D01*
X103946324Y-110426446D01*
X103951670Y-110436447D01*
X104051717Y-110623623D01*
X104193552Y-110796449D01*
X104236860Y-110831991D01*
X106465001Y-113060133D01*
X106465000Y-117844248D01*
X106459509Y-117900000D01*
X106465000Y-117955751D01*
X106481423Y-118122498D01*
X106546324Y-118336446D01*
X106651716Y-118533623D01*
X106793551Y-118706449D01*
X106836864Y-118741996D01*
X107858008Y-119763140D01*
X107893551Y-119806449D01*
X108066377Y-119948284D01*
X108263553Y-120053676D01*
X108477501Y-120118577D01*
X108578876Y-120128561D01*
X108619463Y-120204494D01*
X108698815Y-120301185D01*
X108795506Y-120380537D01*
X108905820Y-120439502D01*
X109025518Y-120475812D01*
X109150000Y-120488072D01*
X110850000Y-120488072D01*
X110974482Y-120475812D01*
X111094180Y-120439502D01*
X111204494Y-120380537D01*
X111301185Y-120301185D01*
X111380537Y-120204494D01*
X111439502Y-120094180D01*
X111475812Y-119974482D01*
X111488072Y-119850000D01*
X111488072Y-118900000D01*
X116461928Y-118900000D01*
X116474188Y-119024482D01*
X116510498Y-119144180D01*
X116569463Y-119254494D01*
X116648815Y-119351185D01*
X116745506Y-119430537D01*
X116855820Y-119489502D01*
X116975518Y-119525812D01*
X117100000Y-119538072D01*
X117714250Y-119535000D01*
X117873000Y-119376250D01*
X117873000Y-118127000D01*
X116623750Y-118127000D01*
X116465000Y-118285750D01*
X116461928Y-118900000D01*
X111488072Y-118900000D01*
X111488072Y-118150000D01*
X111475812Y-118025518D01*
X111439502Y-117905820D01*
X111380537Y-117795506D01*
X111301185Y-117698815D01*
X111204494Y-117619463D01*
X111094180Y-117560498D01*
X111021620Y-117538487D01*
X111153475Y-117406632D01*
X111315990Y-117163411D01*
X111342255Y-117100000D01*
X116461928Y-117100000D01*
X116465000Y-117714250D01*
X116623750Y-117873000D01*
X117873000Y-117873000D01*
X117873000Y-116623750D01*
X118127000Y-116623750D01*
X118127000Y-117873000D01*
X118147000Y-117873000D01*
X118147000Y-118127000D01*
X118127000Y-118127000D01*
X118127000Y-119376250D01*
X118285750Y-119535000D01*
X118900000Y-119538072D01*
X119024482Y-119525812D01*
X119144180Y-119489502D01*
X119254494Y-119430537D01*
X119351185Y-119351185D01*
X119430537Y-119254494D01*
X119489502Y-119144180D01*
X119495056Y-119125873D01*
X119561495Y-119192312D01*
X119812905Y-119360299D01*
X120092257Y-119476011D01*
X120388816Y-119535000D01*
X120691184Y-119535000D01*
X120987743Y-119476011D01*
X121267095Y-119360299D01*
X121518505Y-119192312D01*
X121732312Y-118978505D01*
X121784767Y-118900000D01*
X136461928Y-118900000D01*
X136474188Y-119024482D01*
X136510498Y-119144180D01*
X136569463Y-119254494D01*
X136648815Y-119351185D01*
X136745506Y-119430537D01*
X136855820Y-119489502D01*
X136975518Y-119525812D01*
X137100000Y-119538072D01*
X137714250Y-119535000D01*
X137873000Y-119376250D01*
X137873000Y-118127000D01*
X136623750Y-118127000D01*
X136465000Y-118285750D01*
X136461928Y-118900000D01*
X121784767Y-118900000D01*
X121900299Y-118727095D01*
X122016011Y-118447743D01*
X122075000Y-118151184D01*
X122075000Y-118070131D01*
X123045131Y-117100000D01*
X136461928Y-117100000D01*
X136465000Y-117714250D01*
X136623750Y-117873000D01*
X137873000Y-117873000D01*
X137873000Y-116623750D01*
X137714250Y-116465000D01*
X137100000Y-116461928D01*
X136975518Y-116474188D01*
X136855820Y-116510498D01*
X136745506Y-116569463D01*
X136648815Y-116648815D01*
X136569463Y-116745506D01*
X136510498Y-116855820D01*
X136474188Y-116975518D01*
X136461928Y-117100000D01*
X123045131Y-117100000D01*
X125010132Y-115135000D01*
X140944249Y-115135000D01*
X141000000Y-115140491D01*
X141055751Y-115135000D01*
X141055752Y-115135000D01*
X141222499Y-115118577D01*
X141436447Y-115053676D01*
X141633623Y-114948284D01*
X141806449Y-114806449D01*
X141841996Y-114763135D01*
X146763141Y-109841991D01*
X146806449Y-109806449D01*
X146948284Y-109633623D01*
X147053676Y-109436447D01*
X147118577Y-109222499D01*
X147135000Y-109055752D01*
X147140491Y-109000000D01*
X147135000Y-108944248D01*
X147135000Y-105470131D01*
X149470133Y-103135000D01*
X157529869Y-103135000D01*
X159945001Y-105550133D01*
X159945000Y-107034893D01*
X159926525Y-107053368D01*
X159810000Y-107227760D01*
X159693475Y-107053368D01*
X159486632Y-106846525D01*
X159243411Y-106684010D01*
X158973158Y-106572068D01*
X158686260Y-106515000D01*
X158393740Y-106515000D01*
X158106842Y-106572068D01*
X157836589Y-106684010D01*
X157593368Y-106846525D01*
X157461513Y-106978380D01*
X157439502Y-106905820D01*
X157380537Y-106795506D01*
X157301185Y-106698815D01*
X157204494Y-106619463D01*
X157094180Y-106560498D01*
X156974482Y-106524188D01*
X156850000Y-106511928D01*
X155150000Y-106511928D01*
X155025518Y-106524188D01*
X154905820Y-106560498D01*
X154795506Y-106619463D01*
X154698815Y-106698815D01*
X154619463Y-106795506D01*
X154582317Y-106865000D01*
X151515752Y-106865000D01*
X151460000Y-106859509D01*
X151404248Y-106865000D01*
X151237501Y-106881423D01*
X151023553Y-106946324D01*
X150826377Y-107051716D01*
X150653551Y-107193551D01*
X150618008Y-107236860D01*
X149879869Y-107975000D01*
X149853740Y-107975000D01*
X149566842Y-108032068D01*
X149296589Y-108144010D01*
X149053368Y-108306525D01*
X148846525Y-108513368D01*
X148684010Y-108756589D01*
X148572068Y-109026842D01*
X148515000Y-109313740D01*
X148515000Y-109606260D01*
X148572068Y-109893158D01*
X148684010Y-110163411D01*
X148846525Y-110406632D01*
X148978380Y-110538487D01*
X148905820Y-110560498D01*
X148795506Y-110619463D01*
X148698815Y-110698815D01*
X148619463Y-110795506D01*
X148560498Y-110905820D01*
X148524188Y-111025518D01*
X148511928Y-111150000D01*
X148511928Y-112850000D01*
X148524188Y-112974482D01*
X148560498Y-113094180D01*
X148619463Y-113204494D01*
X148698815Y-113301185D01*
X148795506Y-113380537D01*
X148905820Y-113439502D01*
X149025518Y-113475812D01*
X149150000Y-113488072D01*
X150850000Y-113488072D01*
X150974482Y-113475812D01*
X151094180Y-113439502D01*
X151204494Y-113380537D01*
X151301185Y-113301185D01*
X151380537Y-113204494D01*
X151417683Y-113135000D01*
X152944249Y-113135000D01*
X153000000Y-113140491D01*
X153055751Y-113135000D01*
X153055752Y-113135000D01*
X153222499Y-113118577D01*
X153436447Y-113053676D01*
X153633623Y-112948284D01*
X153806449Y-112806449D01*
X153841995Y-112763136D01*
X154470132Y-112135000D01*
X157264895Y-112135000D01*
X157193551Y-112193551D01*
X157158011Y-112236857D01*
X152529869Y-116865000D01*
X141575817Y-116865000D01*
X141518505Y-116807688D01*
X141267095Y-116639701D01*
X140987743Y-116523989D01*
X140691184Y-116465000D01*
X140388816Y-116465000D01*
X140092257Y-116523989D01*
X139812905Y-116639701D01*
X139561495Y-116807688D01*
X139495056Y-116874127D01*
X139489502Y-116855820D01*
X139430537Y-116745506D01*
X139351185Y-116648815D01*
X139254494Y-116569463D01*
X139144180Y-116510498D01*
X139024482Y-116474188D01*
X138900000Y-116461928D01*
X138285750Y-116465000D01*
X138127000Y-116623750D01*
X138127000Y-117873000D01*
X138147000Y-117873000D01*
X138147000Y-118127000D01*
X138127000Y-118127000D01*
X138127000Y-119376250D01*
X138285750Y-119535000D01*
X138900000Y-119538072D01*
X139024482Y-119525812D01*
X139144180Y-119489502D01*
X139254494Y-119430537D01*
X139351185Y-119351185D01*
X139430537Y-119254494D01*
X139489502Y-119144180D01*
X139495056Y-119125873D01*
X139561495Y-119192312D01*
X139812905Y-119360299D01*
X140092257Y-119476011D01*
X140388816Y-119535000D01*
X140691184Y-119535000D01*
X140987743Y-119476011D01*
X141267095Y-119360299D01*
X141518505Y-119192312D01*
X141575817Y-119135000D01*
X152944249Y-119135000D01*
X153000000Y-119140491D01*
X153055751Y-119135000D01*
X153055752Y-119135000D01*
X153222499Y-119118577D01*
X153436447Y-119053676D01*
X153633623Y-118948284D01*
X153692457Y-118900000D01*
X157461928Y-118900000D01*
X157474188Y-119024482D01*
X157510498Y-119144180D01*
X157569463Y-119254494D01*
X157648815Y-119351185D01*
X157745506Y-119430537D01*
X157855820Y-119489502D01*
X157975518Y-119525812D01*
X158100000Y-119538072D01*
X158714250Y-119535000D01*
X158873000Y-119376250D01*
X158873000Y-118127000D01*
X157623750Y-118127000D01*
X157465000Y-118285750D01*
X157461928Y-118900000D01*
X153692457Y-118900000D01*
X153806449Y-118806449D01*
X153841996Y-118763135D01*
X155505131Y-117100000D01*
X157461928Y-117100000D01*
X157465000Y-117714250D01*
X157623750Y-117873000D01*
X158873000Y-117873000D01*
X158873000Y-116623750D01*
X158714250Y-116465000D01*
X158100000Y-116461928D01*
X157975518Y-116474188D01*
X157855820Y-116510498D01*
X157745506Y-116569463D01*
X157648815Y-116648815D01*
X157569463Y-116745506D01*
X157510498Y-116855820D01*
X157474188Y-116975518D01*
X157461928Y-117100000D01*
X155505131Y-117100000D01*
X158470132Y-114135000D01*
X158564249Y-114135000D01*
X158620000Y-114140491D01*
X158675751Y-114135000D01*
X158675752Y-114135000D01*
X158842499Y-114118577D01*
X159056447Y-114053676D01*
X159253623Y-113948284D01*
X159426449Y-113806449D01*
X159461996Y-113763135D01*
X161220132Y-112005000D01*
X161964249Y-112005000D01*
X162020000Y-112010491D01*
X162075751Y-112005000D01*
X162075752Y-112005000D01*
X162242499Y-111988577D01*
X162456447Y-111923676D01*
X162653623Y-111818284D01*
X162826449Y-111676449D01*
X162861995Y-111633136D01*
X164383146Y-110111987D01*
X164426449Y-110076449D01*
X164466201Y-110028012D01*
X164568284Y-109903623D01*
X164673676Y-109706447D01*
X164738577Y-109492499D01*
X164760491Y-109270000D01*
X164755000Y-109214248D01*
X164755000Y-108965107D01*
X164773475Y-108946632D01*
X164890000Y-108772240D01*
X165006525Y-108946632D01*
X165025000Y-108965107D01*
X165025001Y-114369867D01*
X162552843Y-116842026D01*
X162518505Y-116807688D01*
X162267095Y-116639701D01*
X161987743Y-116523989D01*
X161691184Y-116465000D01*
X161388816Y-116465000D01*
X161092257Y-116523989D01*
X160812905Y-116639701D01*
X160561495Y-116807688D01*
X160495056Y-116874127D01*
X160489502Y-116855820D01*
X160430537Y-116745506D01*
X160351185Y-116648815D01*
X160254494Y-116569463D01*
X160144180Y-116510498D01*
X160024482Y-116474188D01*
X159900000Y-116461928D01*
X159285750Y-116465000D01*
X159127000Y-116623750D01*
X159127000Y-117873000D01*
X159147000Y-117873000D01*
X159147000Y-118127000D01*
X159127000Y-118127000D01*
X159127000Y-119376250D01*
X159285750Y-119535000D01*
X159900000Y-119538072D01*
X160024482Y-119525812D01*
X160144180Y-119489502D01*
X160254494Y-119430537D01*
X160351185Y-119351185D01*
X160430537Y-119254494D01*
X160489502Y-119144180D01*
X160495056Y-119125873D01*
X160561495Y-119192312D01*
X160812905Y-119360299D01*
X161092257Y-119476011D01*
X161388816Y-119535000D01*
X161691184Y-119535000D01*
X161987743Y-119476011D01*
X162267095Y-119360299D01*
X162518505Y-119192312D01*
X162575817Y-119135000D01*
X162944249Y-119135000D01*
X163000000Y-119140491D01*
X163055751Y-119135000D01*
X163055752Y-119135000D01*
X163222499Y-119118577D01*
X163436447Y-119053676D01*
X163633623Y-118948284D01*
X163692457Y-118900000D01*
X178461928Y-118900000D01*
X178474188Y-119024482D01*
X178510498Y-119144180D01*
X178569463Y-119254494D01*
X178648815Y-119351185D01*
X178745506Y-119430537D01*
X178855820Y-119489502D01*
X178975518Y-119525812D01*
X179100000Y-119538072D01*
X179714250Y-119535000D01*
X179873000Y-119376250D01*
X179873000Y-118127000D01*
X178623750Y-118127000D01*
X178465000Y-118285750D01*
X178461928Y-118900000D01*
X163692457Y-118900000D01*
X163806449Y-118806449D01*
X163841996Y-118763135D01*
X165505131Y-117100000D01*
X178461928Y-117100000D01*
X178465000Y-117714250D01*
X178623750Y-117873000D01*
X179873000Y-117873000D01*
X179873000Y-116623750D01*
X179714250Y-116465000D01*
X179100000Y-116461928D01*
X178975518Y-116474188D01*
X178855820Y-116510498D01*
X178745506Y-116569463D01*
X178648815Y-116648815D01*
X178569463Y-116745506D01*
X178510498Y-116855820D01*
X178474188Y-116975518D01*
X178461928Y-117100000D01*
X165505131Y-117100000D01*
X166923141Y-115681991D01*
X166966449Y-115646449D01*
X167108284Y-115473623D01*
X167213676Y-115276447D01*
X167278577Y-115062499D01*
X167295000Y-114895752D01*
X167300491Y-114840000D01*
X167295000Y-114784248D01*
X167295000Y-111850000D01*
X173511928Y-111850000D01*
X173524188Y-111974482D01*
X173560498Y-112094180D01*
X173619463Y-112204494D01*
X173698815Y-112301185D01*
X173795506Y-112380537D01*
X173905820Y-112439502D01*
X174025518Y-112475812D01*
X174150000Y-112488072D01*
X174714250Y-112485000D01*
X174873000Y-112326250D01*
X174873000Y-111127000D01*
X175127000Y-111127000D01*
X175127000Y-112326250D01*
X175285750Y-112485000D01*
X175850000Y-112488072D01*
X175974482Y-112475812D01*
X176094180Y-112439502D01*
X176204494Y-112380537D01*
X176301185Y-112301185D01*
X176380537Y-112204494D01*
X176439502Y-112094180D01*
X176475812Y-111974482D01*
X176488072Y-111850000D01*
X180511928Y-111850000D01*
X180524188Y-111974482D01*
X180560498Y-112094180D01*
X180619463Y-112204494D01*
X180698815Y-112301185D01*
X180795506Y-112380537D01*
X180905820Y-112439502D01*
X181025518Y-112475812D01*
X181150000Y-112488072D01*
X181714250Y-112485000D01*
X181873000Y-112326250D01*
X181873000Y-111127000D01*
X182127000Y-111127000D01*
X182127000Y-112326250D01*
X182285750Y-112485000D01*
X182850000Y-112488072D01*
X182974482Y-112475812D01*
X183094180Y-112439502D01*
X183204494Y-112380537D01*
X183301185Y-112301185D01*
X183380537Y-112204494D01*
X183439502Y-112094180D01*
X183475812Y-111974482D01*
X183488072Y-111850000D01*
X183485000Y-111285750D01*
X183326250Y-111127000D01*
X182127000Y-111127000D01*
X181873000Y-111127000D01*
X180673750Y-111127000D01*
X180515000Y-111285750D01*
X180511928Y-111850000D01*
X176488072Y-111850000D01*
X176485000Y-111285750D01*
X176326250Y-111127000D01*
X175127000Y-111127000D01*
X174873000Y-111127000D01*
X173673750Y-111127000D01*
X173515000Y-111285750D01*
X173511928Y-111850000D01*
X167295000Y-111850000D01*
X167295000Y-110150000D01*
X173511928Y-110150000D01*
X173515000Y-110714250D01*
X173673750Y-110873000D01*
X174873000Y-110873000D01*
X174873000Y-110853000D01*
X175127000Y-110853000D01*
X175127000Y-110873000D01*
X176326250Y-110873000D01*
X176485000Y-110714250D01*
X176488072Y-110150000D01*
X176475812Y-110025518D01*
X176439502Y-109905820D01*
X176380537Y-109795506D01*
X176301185Y-109698815D01*
X176204494Y-109619463D01*
X176094180Y-109560498D01*
X176021620Y-109538487D01*
X176153475Y-109406632D01*
X176315990Y-109163411D01*
X176427932Y-108893158D01*
X176485000Y-108606260D01*
X176485000Y-108313740D01*
X176427932Y-108026842D01*
X176315990Y-107756589D01*
X176153475Y-107513368D01*
X176135000Y-107494893D01*
X176135000Y-103470131D01*
X178470133Y-101135000D01*
X181582317Y-101135000D01*
X181619463Y-101204494D01*
X181698815Y-101301185D01*
X181795506Y-101380537D01*
X181905820Y-101439502D01*
X182025518Y-101475812D01*
X182150000Y-101488072D01*
X183850000Y-101488072D01*
X183974482Y-101475812D01*
X184094180Y-101439502D01*
X184204494Y-101380537D01*
X184301185Y-101301185D01*
X184380537Y-101204494D01*
X184405000Y-101158727D01*
X184405001Y-102109867D01*
X181236865Y-105278004D01*
X181193551Y-105313551D01*
X181051716Y-105486377D01*
X180946325Y-105683553D01*
X180946324Y-105683554D01*
X180881423Y-105897502D01*
X180859509Y-106120000D01*
X180865000Y-106175752D01*
X180865001Y-107494892D01*
X180846525Y-107513368D01*
X180684010Y-107756589D01*
X180572068Y-108026842D01*
X180515000Y-108313740D01*
X180515000Y-108606260D01*
X180572068Y-108893158D01*
X180684010Y-109163411D01*
X180846525Y-109406632D01*
X180978380Y-109538487D01*
X180905820Y-109560498D01*
X180795506Y-109619463D01*
X180698815Y-109698815D01*
X180619463Y-109795506D01*
X180560498Y-109905820D01*
X180524188Y-110025518D01*
X180511928Y-110150000D01*
X180515000Y-110714250D01*
X180673750Y-110873000D01*
X181873000Y-110873000D01*
X181873000Y-110853000D01*
X182127000Y-110853000D01*
X182127000Y-110873000D01*
X183326250Y-110873000D01*
X183485000Y-110714250D01*
X183488072Y-110150000D01*
X183475812Y-110025518D01*
X183439502Y-109905820D01*
X183380537Y-109795506D01*
X183301185Y-109698815D01*
X183204494Y-109619463D01*
X183094180Y-109560498D01*
X183021620Y-109538487D01*
X183153475Y-109406632D01*
X183315990Y-109163411D01*
X183427932Y-108893158D01*
X183485000Y-108606260D01*
X183485000Y-108313740D01*
X183427932Y-108026842D01*
X183315990Y-107756589D01*
X183153475Y-107513368D01*
X183135000Y-107494893D01*
X183135000Y-106590131D01*
X186303141Y-103421991D01*
X186346449Y-103386449D01*
X186488284Y-103213623D01*
X186593676Y-103016447D01*
X186658577Y-102802499D01*
X186675000Y-102635752D01*
X186680491Y-102580001D01*
X186675000Y-102524249D01*
X186675000Y-100965107D01*
X186693475Y-100946632D01*
X186810000Y-100772240D01*
X186926525Y-100946632D01*
X186945001Y-100965108D01*
X186945000Y-115149868D01*
X185229869Y-116865000D01*
X183575817Y-116865000D01*
X183518505Y-116807688D01*
X183267095Y-116639701D01*
X182987743Y-116523989D01*
X182691184Y-116465000D01*
X182388816Y-116465000D01*
X182092257Y-116523989D01*
X181812905Y-116639701D01*
X181561495Y-116807688D01*
X181495056Y-116874127D01*
X181489502Y-116855820D01*
X181430537Y-116745506D01*
X181351185Y-116648815D01*
X181254494Y-116569463D01*
X181144180Y-116510498D01*
X181024482Y-116474188D01*
X180900000Y-116461928D01*
X180285750Y-116465000D01*
X180127000Y-116623750D01*
X180127000Y-117873000D01*
X180147000Y-117873000D01*
X180147000Y-118127000D01*
X180127000Y-118127000D01*
X180127000Y-119376250D01*
X180285750Y-119535000D01*
X180900000Y-119538072D01*
X181024482Y-119525812D01*
X181144180Y-119489502D01*
X181254494Y-119430537D01*
X181351185Y-119351185D01*
X181430537Y-119254494D01*
X181489502Y-119144180D01*
X181495056Y-119125873D01*
X181561495Y-119192312D01*
X181812905Y-119360299D01*
X182092257Y-119476011D01*
X182388816Y-119535000D01*
X182691184Y-119535000D01*
X182987743Y-119476011D01*
X183267095Y-119360299D01*
X183518505Y-119192312D01*
X183575817Y-119135000D01*
X185644249Y-119135000D01*
X185700000Y-119140491D01*
X185755751Y-119135000D01*
X185755752Y-119135000D01*
X185922499Y-119118577D01*
X186136447Y-119053676D01*
X186333623Y-118948284D01*
X186392457Y-118900000D01*
X199461928Y-118900000D01*
X199474188Y-119024482D01*
X199510498Y-119144180D01*
X199569463Y-119254494D01*
X199648815Y-119351185D01*
X199745506Y-119430537D01*
X199855820Y-119489502D01*
X199975518Y-119525812D01*
X200100000Y-119538072D01*
X200714250Y-119535000D01*
X200873000Y-119376250D01*
X200873000Y-118127000D01*
X199623750Y-118127000D01*
X199465000Y-118285750D01*
X199461928Y-118900000D01*
X186392457Y-118900000D01*
X186506449Y-118806449D01*
X186541996Y-118763135D01*
X188205131Y-117100000D01*
X199461928Y-117100000D01*
X199465000Y-117714250D01*
X199623750Y-117873000D01*
X200873000Y-117873000D01*
X200873000Y-116623750D01*
X200714250Y-116465000D01*
X200100000Y-116461928D01*
X199975518Y-116474188D01*
X199855820Y-116510498D01*
X199745506Y-116569463D01*
X199648815Y-116648815D01*
X199569463Y-116745506D01*
X199510498Y-116855820D01*
X199474188Y-116975518D01*
X199461928Y-117100000D01*
X188205131Y-117100000D01*
X188843141Y-116461991D01*
X188886449Y-116426449D01*
X189028284Y-116253623D01*
X189133676Y-116056447D01*
X189198577Y-115842499D01*
X189215000Y-115675752D01*
X189215000Y-115675743D01*
X189220490Y-115620001D01*
X189215000Y-115564259D01*
X189215000Y-100965107D01*
X189233475Y-100946632D01*
X189350000Y-100772240D01*
X189466525Y-100946632D01*
X189673368Y-101153475D01*
X189916589Y-101315990D01*
X190186842Y-101427932D01*
X190473740Y-101485000D01*
X190766260Y-101485000D01*
X191053158Y-101427932D01*
X191323411Y-101315990D01*
X191566632Y-101153475D01*
X191585107Y-101135000D01*
X193199869Y-101135000D01*
X199435000Y-107370133D01*
X199435001Y-110404239D01*
X199429509Y-110460000D01*
X199451423Y-110682498D01*
X199516324Y-110896446D01*
X199544032Y-110948283D01*
X199621717Y-111093623D01*
X199763552Y-111266449D01*
X199806860Y-111301991D01*
X202405000Y-113900132D01*
X202405001Y-116714390D01*
X202351185Y-116648815D01*
X202254494Y-116569463D01*
X202144180Y-116510498D01*
X202024482Y-116474188D01*
X201900000Y-116461928D01*
X201285750Y-116465000D01*
X201127000Y-116623750D01*
X201127000Y-117873000D01*
X201147000Y-117873000D01*
X201147000Y-118127000D01*
X201127000Y-118127000D01*
X201127000Y-119376250D01*
X201285750Y-119535000D01*
X201900000Y-119538072D01*
X202024482Y-119525812D01*
X202144180Y-119489502D01*
X202254494Y-119430537D01*
X202351185Y-119351185D01*
X202430537Y-119254494D01*
X202489502Y-119144180D01*
X202495056Y-119125873D01*
X202561495Y-119192312D01*
X202812905Y-119360299D01*
X203092257Y-119476011D01*
X203388816Y-119535000D01*
X203691184Y-119535000D01*
X203987743Y-119476011D01*
X204267095Y-119360299D01*
X204518505Y-119192312D01*
X204732312Y-118978505D01*
X204900299Y-118727095D01*
X205016011Y-118447743D01*
X205075000Y-118151184D01*
X205075000Y-117848816D01*
X205016011Y-117552257D01*
X204900299Y-117272905D01*
X204732312Y-117021495D01*
X204675000Y-116964183D01*
X204675000Y-113485741D01*
X204680490Y-113429999D01*
X204675000Y-113374257D01*
X204675000Y-113374248D01*
X204658577Y-113207501D01*
X204593676Y-112993553D01*
X204488284Y-112796377D01*
X204346449Y-112623551D01*
X204303141Y-112588009D01*
X201705000Y-109989869D01*
X201705000Y-109639297D01*
X204337720Y-109639297D01*
X204337720Y-110360703D01*
X204478460Y-111068248D01*
X204754530Y-111734740D01*
X205155322Y-112334567D01*
X205665433Y-112844678D01*
X206265260Y-113245470D01*
X206931752Y-113521540D01*
X207639297Y-113662280D01*
X208360703Y-113662280D01*
X209068248Y-113521540D01*
X209734740Y-113245470D01*
X210334567Y-112844678D01*
X210844678Y-112334567D01*
X211245470Y-111734740D01*
X211521540Y-111068248D01*
X211662280Y-110360703D01*
X211662280Y-109639297D01*
X211521540Y-108931752D01*
X211245470Y-108265260D01*
X210844678Y-107665433D01*
X210334567Y-107155322D01*
X209734740Y-106754530D01*
X209068248Y-106478460D01*
X208360703Y-106337720D01*
X207639297Y-106337720D01*
X206931752Y-106478460D01*
X206265260Y-106754530D01*
X205665433Y-107155322D01*
X205155322Y-107665433D01*
X204754530Y-108265260D01*
X204478460Y-108931752D01*
X204337720Y-109639297D01*
X201705000Y-109639297D01*
X201705000Y-106955752D01*
X201710491Y-106900000D01*
X201688577Y-106677501D01*
X201623676Y-106463553D01*
X201518284Y-106266377D01*
X201411989Y-106136856D01*
X201411987Y-106136854D01*
X201376449Y-106093551D01*
X201333146Y-106058013D01*
X194511996Y-99236865D01*
X194476449Y-99193551D01*
X194303623Y-99051716D01*
X194106447Y-98946324D01*
X193892499Y-98881423D01*
X193725752Y-98865000D01*
X193725751Y-98865000D01*
X193670000Y-98859509D01*
X193614249Y-98865000D01*
X191585107Y-98865000D01*
X191566632Y-98846525D01*
X191323411Y-98684010D01*
X191053158Y-98572068D01*
X190766260Y-98515000D01*
X190473740Y-98515000D01*
X190186842Y-98572068D01*
X189916589Y-98684010D01*
X189673368Y-98846525D01*
X189466525Y-99053368D01*
X189350000Y-99227760D01*
X189233475Y-99053368D01*
X189026632Y-98846525D01*
X188783411Y-98684010D01*
X188513158Y-98572068D01*
X188226260Y-98515000D01*
X187933740Y-98515000D01*
X187646842Y-98572068D01*
X187376589Y-98684010D01*
X187133368Y-98846525D01*
X186926525Y-99053368D01*
X186810000Y-99227760D01*
X186693475Y-99053368D01*
X186486632Y-98846525D01*
X186243411Y-98684010D01*
X185973158Y-98572068D01*
X185686260Y-98515000D01*
X185393740Y-98515000D01*
X185106842Y-98572068D01*
X184836589Y-98684010D01*
X184593368Y-98846525D01*
X184461513Y-98978380D01*
X184439502Y-98905820D01*
X184380537Y-98795506D01*
X184301185Y-98698815D01*
X184204494Y-98619463D01*
X184094180Y-98560498D01*
X183974482Y-98524188D01*
X183850000Y-98511928D01*
X182150000Y-98511928D01*
X182025518Y-98524188D01*
X181905820Y-98560498D01*
X181795506Y-98619463D01*
X181698815Y-98698815D01*
X181619463Y-98795506D01*
X181582317Y-98865000D01*
X178055752Y-98865000D01*
X178000000Y-98859509D01*
X177777501Y-98881423D01*
X177563553Y-98946324D01*
X177366377Y-99051716D01*
X177236856Y-99158011D01*
X177236855Y-99158012D01*
X177193551Y-99193551D01*
X177158013Y-99236854D01*
X174236860Y-102158009D01*
X174193552Y-102193551D01*
X174051717Y-102366377D01*
X174014265Y-102436446D01*
X173946324Y-102563554D01*
X173881423Y-102777502D01*
X173859509Y-103000000D01*
X173865001Y-103055761D01*
X173865000Y-107494893D01*
X173846525Y-107513368D01*
X173684010Y-107756589D01*
X173572068Y-108026842D01*
X173515000Y-108313740D01*
X173515000Y-108606260D01*
X173572068Y-108893158D01*
X173684010Y-109163411D01*
X173846525Y-109406632D01*
X173978380Y-109538487D01*
X173905820Y-109560498D01*
X173795506Y-109619463D01*
X173698815Y-109698815D01*
X173619463Y-109795506D01*
X173560498Y-109905820D01*
X173524188Y-110025518D01*
X173511928Y-110150000D01*
X167295000Y-110150000D01*
X167295000Y-108965107D01*
X167313475Y-108946632D01*
X167475990Y-108703411D01*
X167587932Y-108433158D01*
X167645000Y-108146260D01*
X167645000Y-107853740D01*
X167587932Y-107566842D01*
X167475990Y-107296589D01*
X167313475Y-107053368D01*
X167106632Y-106846525D01*
X166863411Y-106684010D01*
X166593158Y-106572068D01*
X166306260Y-106515000D01*
X166013740Y-106515000D01*
X165726842Y-106572068D01*
X165456589Y-106684010D01*
X165213368Y-106846525D01*
X165006525Y-107053368D01*
X164890000Y-107227760D01*
X164773475Y-107053368D01*
X164566632Y-106846525D01*
X164323411Y-106684010D01*
X164053158Y-106572068D01*
X163766260Y-106515000D01*
X163473740Y-106515000D01*
X163186842Y-106572068D01*
X162916589Y-106684010D01*
X162673368Y-106846525D01*
X162466525Y-107053368D01*
X162350000Y-107227760D01*
X162233475Y-107053368D01*
X162215000Y-107034893D01*
X162215000Y-105135752D01*
X162220491Y-105080000D01*
X162198577Y-104857501D01*
X162133676Y-104643553D01*
X162028284Y-104446377D01*
X161962630Y-104366378D01*
X161886449Y-104273551D01*
X161843141Y-104238009D01*
X158841996Y-101236865D01*
X158806449Y-101193551D01*
X158633623Y-101051716D01*
X158436447Y-100946324D01*
X158222499Y-100881423D01*
X158055752Y-100865000D01*
X158055751Y-100865000D01*
X158000000Y-100859509D01*
X157944249Y-100865000D01*
X149055752Y-100865000D01*
X149000000Y-100859509D01*
X148777501Y-100881423D01*
X148563553Y-100946324D01*
X148366377Y-101051716D01*
X148236856Y-101158011D01*
X148236855Y-101158012D01*
X148193551Y-101193551D01*
X148158013Y-101236854D01*
X145236865Y-104158004D01*
X145193551Y-104193551D01*
X145135000Y-104264895D01*
X145135000Y-98884284D01*
X145271680Y-98679727D01*
X145379853Y-98418574D01*
X145435000Y-98141335D01*
X145435000Y-97858665D01*
X145379853Y-97581426D01*
X145271680Y-97320273D01*
X145114637Y-97085241D01*
X144914759Y-96885363D01*
X144679727Y-96728320D01*
X144418574Y-96620147D01*
X144141335Y-96565000D01*
X143858665Y-96565000D01*
X143581426Y-96620147D01*
X143320273Y-96728320D01*
X143085241Y-96885363D01*
X142885363Y-97085241D01*
X142728320Y-97320273D01*
X142620147Y-97581426D01*
X142565000Y-97858665D01*
X142565000Y-98141335D01*
X142620147Y-98418574D01*
X142728320Y-98679727D01*
X142865001Y-98884285D01*
X142865000Y-104529868D01*
X139776860Y-107618009D01*
X139733552Y-107653551D01*
X139591717Y-107826377D01*
X139568070Y-107870618D01*
X139486324Y-108023554D01*
X139476557Y-108055752D01*
X139421423Y-108237501D01*
X139408730Y-108366378D01*
X139399509Y-108460000D01*
X139405000Y-108515751D01*
X139405000Y-108714389D01*
X139351185Y-108648815D01*
X139254494Y-108569463D01*
X139144180Y-108510498D01*
X139024482Y-108474188D01*
X138900000Y-108461928D01*
X138285750Y-108465000D01*
X138127000Y-108623750D01*
X138127000Y-109873000D01*
X138147000Y-109873000D01*
X138147000Y-110127000D01*
X138127000Y-110127000D01*
X138127000Y-111376250D01*
X138285750Y-111535000D01*
X138900000Y-111538072D01*
X139024482Y-111525812D01*
X139144180Y-111489502D01*
X139254494Y-111430537D01*
X139351185Y-111351185D01*
X139430537Y-111254494D01*
X139489502Y-111144180D01*
X139495056Y-111125873D01*
X139561495Y-111192312D01*
X139812905Y-111360299D01*
X140092257Y-111476011D01*
X140388816Y-111535000D01*
X140691184Y-111535000D01*
X140987743Y-111476011D01*
X141267095Y-111360299D01*
X141518505Y-111192312D01*
X141732312Y-110978505D01*
X141900299Y-110727095D01*
X142016011Y-110447743D01*
X142075000Y-110151184D01*
X142075000Y-109848816D01*
X142016011Y-109552257D01*
X141900299Y-109272905D01*
X141732312Y-109021495D01*
X141675000Y-108964183D01*
X141675000Y-108930131D01*
X144763141Y-105841991D01*
X144806449Y-105806449D01*
X144865000Y-105735104D01*
X144865001Y-108529867D01*
X140529869Y-112865000D01*
X124595741Y-112865000D01*
X124539999Y-112859510D01*
X124484257Y-112865000D01*
X124484248Y-112865000D01*
X124317501Y-112881423D01*
X124103553Y-112946324D01*
X123906377Y-113051716D01*
X123733551Y-113193551D01*
X123698011Y-113236857D01*
X120469869Y-116465000D01*
X120388816Y-116465000D01*
X120092257Y-116523989D01*
X119812905Y-116639701D01*
X119561495Y-116807688D01*
X119495056Y-116874127D01*
X119489502Y-116855820D01*
X119430537Y-116745506D01*
X119351185Y-116648815D01*
X119254494Y-116569463D01*
X119144180Y-116510498D01*
X119024482Y-116474188D01*
X118900000Y-116461928D01*
X118285750Y-116465000D01*
X118127000Y-116623750D01*
X117873000Y-116623750D01*
X117714250Y-116465000D01*
X117100000Y-116461928D01*
X116975518Y-116474188D01*
X116855820Y-116510498D01*
X116745506Y-116569463D01*
X116648815Y-116648815D01*
X116569463Y-116745506D01*
X116510498Y-116855820D01*
X116474188Y-116975518D01*
X116461928Y-117100000D01*
X111342255Y-117100000D01*
X111427932Y-116893158D01*
X111485000Y-116606260D01*
X111485000Y-116313740D01*
X111427932Y-116026842D01*
X111315990Y-115756589D01*
X111153475Y-115513368D01*
X111135000Y-115494893D01*
X111135000Y-114800131D01*
X113763146Y-112171987D01*
X113806449Y-112136449D01*
X113874380Y-112053676D01*
X113948284Y-111963623D01*
X114053676Y-111766447D01*
X114118577Y-111552499D01*
X114140491Y-111330000D01*
X114135000Y-111274248D01*
X114135000Y-110900000D01*
X116461928Y-110900000D01*
X116474188Y-111024482D01*
X116510498Y-111144180D01*
X116569463Y-111254494D01*
X116648815Y-111351185D01*
X116745506Y-111430537D01*
X116855820Y-111489502D01*
X116975518Y-111525812D01*
X117100000Y-111538072D01*
X117714250Y-111535000D01*
X117873000Y-111376250D01*
X117873000Y-110127000D01*
X116623750Y-110127000D01*
X116465000Y-110285750D01*
X116461928Y-110900000D01*
X114135000Y-110900000D01*
X114135000Y-109100000D01*
X116461928Y-109100000D01*
X116465000Y-109714250D01*
X116623750Y-109873000D01*
X117873000Y-109873000D01*
X117873000Y-108623750D01*
X118127000Y-108623750D01*
X118127000Y-109873000D01*
X118147000Y-109873000D01*
X118147000Y-110127000D01*
X118127000Y-110127000D01*
X118127000Y-111376250D01*
X118285750Y-111535000D01*
X118900000Y-111538072D01*
X119024482Y-111525812D01*
X119144180Y-111489502D01*
X119254494Y-111430537D01*
X119351185Y-111351185D01*
X119430537Y-111254494D01*
X119489502Y-111144180D01*
X119495056Y-111125873D01*
X119561495Y-111192312D01*
X119812905Y-111360299D01*
X120092257Y-111476011D01*
X120388816Y-111535000D01*
X120691184Y-111535000D01*
X120987743Y-111476011D01*
X121267095Y-111360299D01*
X121518505Y-111192312D01*
X121575817Y-111135000D01*
X121944249Y-111135000D01*
X122000000Y-111140491D01*
X122055751Y-111135000D01*
X122055752Y-111135000D01*
X122222499Y-111118577D01*
X122436447Y-111053676D01*
X122633623Y-110948284D01*
X122692457Y-110900000D01*
X136461928Y-110900000D01*
X136474188Y-111024482D01*
X136510498Y-111144180D01*
X136569463Y-111254494D01*
X136648815Y-111351185D01*
X136745506Y-111430537D01*
X136855820Y-111489502D01*
X136975518Y-111525812D01*
X137100000Y-111538072D01*
X137714250Y-111535000D01*
X137873000Y-111376250D01*
X137873000Y-110127000D01*
X136623750Y-110127000D01*
X136465000Y-110285750D01*
X136461928Y-110900000D01*
X122692457Y-110900000D01*
X122806449Y-110806449D01*
X122841996Y-110763135D01*
X124505131Y-109100000D01*
X136461928Y-109100000D01*
X136465000Y-109714250D01*
X136623750Y-109873000D01*
X137873000Y-109873000D01*
X137873000Y-108623750D01*
X137714250Y-108465000D01*
X137100000Y-108461928D01*
X136975518Y-108474188D01*
X136855820Y-108510498D01*
X136745506Y-108569463D01*
X136648815Y-108648815D01*
X136569463Y-108745506D01*
X136510498Y-108855820D01*
X136474188Y-108975518D01*
X136461928Y-109100000D01*
X124505131Y-109100000D01*
X129470132Y-104135000D01*
X137115716Y-104135000D01*
X137320273Y-104271680D01*
X137581426Y-104379853D01*
X137858665Y-104435000D01*
X138141335Y-104435000D01*
X138418574Y-104379853D01*
X138679727Y-104271680D01*
X138914759Y-104114637D01*
X139114637Y-103914759D01*
X139271680Y-103679727D01*
X139379853Y-103418574D01*
X139435000Y-103141335D01*
X139435000Y-102858665D01*
X139379853Y-102581426D01*
X139271680Y-102320273D01*
X139114637Y-102085241D01*
X138914759Y-101885363D01*
X138679727Y-101728320D01*
X138418574Y-101620147D01*
X138141335Y-101565000D01*
X137858665Y-101565000D01*
X137581426Y-101620147D01*
X137320273Y-101728320D01*
X137115716Y-101865000D01*
X129055751Y-101865000D01*
X129000000Y-101859509D01*
X128944248Y-101865000D01*
X128777501Y-101881423D01*
X128563553Y-101946324D01*
X128366377Y-102051716D01*
X128193551Y-102193551D01*
X128158011Y-102236857D01*
X121552843Y-108842026D01*
X121518505Y-108807688D01*
X121267095Y-108639701D01*
X120987743Y-108523989D01*
X120691184Y-108465000D01*
X120388816Y-108465000D01*
X120092257Y-108523989D01*
X119812905Y-108639701D01*
X119561495Y-108807688D01*
X119495056Y-108874127D01*
X119489502Y-108855820D01*
X119430537Y-108745506D01*
X119351185Y-108648815D01*
X119254494Y-108569463D01*
X119144180Y-108510498D01*
X119024482Y-108474188D01*
X118900000Y-108461928D01*
X118285750Y-108465000D01*
X118127000Y-108623750D01*
X117873000Y-108623750D01*
X117714250Y-108465000D01*
X117100000Y-108461928D01*
X116975518Y-108474188D01*
X116855820Y-108510498D01*
X116745506Y-108569463D01*
X116648815Y-108648815D01*
X116569463Y-108745506D01*
X116510498Y-108855820D01*
X116474188Y-108975518D01*
X116461928Y-109100000D01*
X114135000Y-109100000D01*
X114135000Y-107470131D01*
X115470132Y-106135000D01*
X119134249Y-106135000D01*
X119190000Y-106140491D01*
X119245751Y-106135000D01*
X119245752Y-106135000D01*
X119412499Y-106118577D01*
X119626447Y-106053676D01*
X119823623Y-105948284D01*
X119996449Y-105806449D01*
X120031995Y-105763136D01*
X121838146Y-103956987D01*
X121881449Y-103921449D01*
X122023284Y-103748623D01*
X122128676Y-103551447D01*
X122193577Y-103337499D01*
X122210000Y-103170752D01*
X122210000Y-103170751D01*
X122215491Y-103115000D01*
X122210000Y-103059248D01*
X122210000Y-102390741D01*
X122215490Y-102334999D01*
X122210000Y-102279257D01*
X122210000Y-102279249D01*
X122193577Y-102112502D01*
X122128676Y-101898553D01*
X122023284Y-101701377D01*
X121881449Y-101528551D01*
X121838140Y-101493009D01*
X120111996Y-99766865D01*
X120076449Y-99723551D01*
X119903623Y-99581716D01*
X119706447Y-99476324D01*
X119492499Y-99411423D01*
X119325752Y-99395000D01*
X119325751Y-99395000D01*
X119270000Y-99389509D01*
X119214249Y-99395000D01*
X114177436Y-99395000D01*
X114204494Y-99380537D01*
X114301185Y-99301185D01*
X114380537Y-99204494D01*
X114417683Y-99135000D01*
X122795716Y-99135000D01*
X123000273Y-99271680D01*
X123261426Y-99379853D01*
X123538665Y-99435000D01*
X123821335Y-99435000D01*
X124098574Y-99379853D01*
X124359727Y-99271680D01*
X124594759Y-99114637D01*
X124794637Y-98914759D01*
X124951680Y-98679727D01*
X125059853Y-98418574D01*
X125115000Y-98141335D01*
X125115000Y-97858665D01*
X125059853Y-97581426D01*
X124951680Y-97320273D01*
X124794637Y-97085241D01*
X124594759Y-96885363D01*
X124359727Y-96728320D01*
X124098574Y-96620147D01*
X123821335Y-96565000D01*
X123538665Y-96565000D01*
X123261426Y-96620147D01*
X123000273Y-96728320D01*
X122795716Y-96865000D01*
X114417683Y-96865000D01*
X114380537Y-96795506D01*
X114301185Y-96698815D01*
X114204494Y-96619463D01*
X114094180Y-96560498D01*
X113974482Y-96524188D01*
X113850000Y-96511928D01*
X112150000Y-96511928D01*
X112025518Y-96524188D01*
X111905820Y-96560498D01*
X111795506Y-96619463D01*
X111698815Y-96698815D01*
X111619463Y-96795506D01*
X111560498Y-96905820D01*
X111538487Y-96978380D01*
X111406632Y-96846525D01*
X111163411Y-96684010D01*
X110893158Y-96572068D01*
X110606260Y-96515000D01*
X110313740Y-96515000D01*
X110026842Y-96572068D01*
X109756589Y-96684010D01*
X109513368Y-96846525D01*
X109306525Y-97053368D01*
X109184805Y-97235534D01*
X109115178Y-97118645D01*
X108920269Y-96902412D01*
X108686920Y-96728359D01*
X108424099Y-96603175D01*
X108276890Y-96558524D01*
X108047000Y-96679845D01*
X108047000Y-97873000D01*
X108067000Y-97873000D01*
X108067000Y-98127000D01*
X108047000Y-98127000D01*
X108047000Y-99320155D01*
X108276890Y-99441476D01*
X108424099Y-99396825D01*
X108686920Y-99271641D01*
X108920269Y-99097588D01*
X109115178Y-98881355D01*
X109184805Y-98764466D01*
X109306525Y-98946632D01*
X109325000Y-98965107D01*
X109325001Y-101404239D01*
X109319509Y-101460000D01*
X109341423Y-101682498D01*
X109406324Y-101896446D01*
X109432985Y-101946325D01*
X109511717Y-102093623D01*
X109653552Y-102266449D01*
X109696860Y-102301991D01*
X110394868Y-103000000D01*
X109236860Y-104158009D01*
X109193552Y-104193551D01*
X109051717Y-104366377D01*
X108995384Y-104471770D01*
X108946324Y-104563554D01*
X108881423Y-104777502D01*
X108859509Y-105000000D01*
X108865001Y-105055761D01*
X108865000Y-106034893D01*
X108846525Y-106053368D01*
X108684010Y-106296589D01*
X108572068Y-106566842D01*
X108515000Y-106853740D01*
X108515000Y-107146260D01*
X108572068Y-107433158D01*
X108684010Y-107703411D01*
X108846525Y-107946632D01*
X108978380Y-108078487D01*
X108905820Y-108100498D01*
X108795506Y-108159463D01*
X108698815Y-108238815D01*
X108619463Y-108335506D01*
X108582317Y-108405000D01*
X108135000Y-108405000D01*
X108135000Y-102055752D01*
X108140491Y-102000000D01*
X108118577Y-101777501D01*
X108053676Y-101563553D01*
X107948284Y-101366377D01*
X107888182Y-101293143D01*
X107806449Y-101193551D01*
X107763140Y-101158009D01*
X106301996Y-99696865D01*
X106266449Y-99653551D01*
X106093623Y-99511716D01*
X105896447Y-99406324D01*
X105682499Y-99341423D01*
X105515752Y-99325000D01*
X105515751Y-99325000D01*
X105460000Y-99319509D01*
X105404249Y-99325000D01*
X101965107Y-99325000D01*
X101946632Y-99306525D01*
X101764466Y-99184805D01*
X101881355Y-99115178D01*
X102097588Y-98920269D01*
X102271641Y-98686920D01*
X102396825Y-98424099D01*
X102417210Y-98356891D01*
X106478519Y-98356891D01*
X106575843Y-98631252D01*
X106724822Y-98881355D01*
X106919731Y-99097588D01*
X107153080Y-99271641D01*
X107415901Y-99396825D01*
X107563110Y-99441476D01*
X107793000Y-99320155D01*
X107793000Y-98127000D01*
X106599186Y-98127000D01*
X106478519Y-98356891D01*
X102417210Y-98356891D01*
X102441476Y-98276890D01*
X102320155Y-98047000D01*
X101127000Y-98047000D01*
X101127000Y-98067000D01*
X100873000Y-98067000D01*
X100873000Y-98047000D01*
X99679845Y-98047000D01*
X99558524Y-98276890D01*
X99603175Y-98424099D01*
X99728359Y-98686920D01*
X99902412Y-98920269D01*
X100118645Y-99115178D01*
X100235534Y-99184805D01*
X100053368Y-99306525D01*
X99846525Y-99513368D01*
X99684010Y-99756589D01*
X99572068Y-100026842D01*
X99515000Y-100313740D01*
X99515000Y-100606260D01*
X99572068Y-100893158D01*
X99684010Y-101163411D01*
X99846525Y-101406632D01*
X99978380Y-101538487D01*
X99905820Y-101560498D01*
X99795506Y-101619463D01*
X99698815Y-101698815D01*
X99619463Y-101795506D01*
X99560498Y-101905820D01*
X99524188Y-102025518D01*
X99511928Y-102150000D01*
X95660000Y-102150000D01*
X95660000Y-97563110D01*
X99558524Y-97563110D01*
X99679845Y-97793000D01*
X100873000Y-97793000D01*
X100873000Y-96599186D01*
X101127000Y-96599186D01*
X101127000Y-97793000D01*
X102320155Y-97793000D01*
X102399257Y-97643109D01*
X106478519Y-97643109D01*
X106599186Y-97873000D01*
X107793000Y-97873000D01*
X107793000Y-96679845D01*
X107563110Y-96558524D01*
X107415901Y-96603175D01*
X107153080Y-96728359D01*
X106919731Y-96902412D01*
X106724822Y-97118645D01*
X106575843Y-97368748D01*
X106478519Y-97643109D01*
X102399257Y-97643109D01*
X102441476Y-97563110D01*
X102396825Y-97415901D01*
X102271641Y-97153080D01*
X102097588Y-96919731D01*
X101881355Y-96724822D01*
X101631252Y-96575843D01*
X101356891Y-96478519D01*
X101127000Y-96599186D01*
X100873000Y-96599186D01*
X100643109Y-96478519D01*
X100368748Y-96575843D01*
X100118645Y-96724822D01*
X99902412Y-96919731D01*
X99728359Y-97153080D01*
X99603175Y-97415901D01*
X99558524Y-97563110D01*
X95660000Y-97563110D01*
X95660000Y-95660000D01*
X213340000Y-95660000D01*
X213340001Y-123340000D01*
%TA.AperFunction,Conductor*%
D18*
G36*
X213340001Y-123340000D02*
G01*
X95660000Y-123340000D01*
X95660000Y-109639297D01*
X96337720Y-109639297D01*
X96337720Y-110360703D01*
X96478460Y-111068248D01*
X96754530Y-111734740D01*
X97155322Y-112334567D01*
X97665433Y-112844678D01*
X98265260Y-113245470D01*
X98931752Y-113521540D01*
X99639297Y-113662280D01*
X100360703Y-113662280D01*
X101068248Y-113521540D01*
X101734740Y-113245470D01*
X102334567Y-112844678D01*
X102844678Y-112334567D01*
X103245470Y-111734740D01*
X103521540Y-111068248D01*
X103662280Y-110360703D01*
X103662280Y-109639297D01*
X103521540Y-108931752D01*
X103245470Y-108265260D01*
X102844678Y-107665433D01*
X102334567Y-107155322D01*
X101734740Y-106754530D01*
X101068248Y-106478460D01*
X100360703Y-106337720D01*
X99639297Y-106337720D01*
X98931752Y-106478460D01*
X98265260Y-106754530D01*
X97665433Y-107155322D01*
X97155322Y-107665433D01*
X96754530Y-108265260D01*
X96478460Y-108931752D01*
X96337720Y-109639297D01*
X95660000Y-109639297D01*
X95660000Y-102150000D01*
X99511928Y-102150000D01*
X99511928Y-103850000D01*
X99524188Y-103974482D01*
X99560498Y-104094180D01*
X99619463Y-104204494D01*
X99698815Y-104301185D01*
X99795506Y-104380537D01*
X99905820Y-104439502D01*
X100025518Y-104475812D01*
X100150000Y-104488072D01*
X101850000Y-104488072D01*
X101974482Y-104475812D01*
X102094180Y-104439502D01*
X102204494Y-104380537D01*
X102301185Y-104301185D01*
X102380537Y-104204494D01*
X102417683Y-104135000D01*
X103529868Y-104135000D01*
X103865000Y-104470132D01*
X103865001Y-109934239D01*
X103859509Y-109990000D01*
X103881423Y-110212498D01*
X103946324Y-110426446D01*
X103951670Y-110436447D01*
X104051717Y-110623623D01*
X104193552Y-110796449D01*
X104236860Y-110831991D01*
X106465001Y-113060133D01*
X106465000Y-117844248D01*
X106459509Y-117900000D01*
X106465000Y-117955751D01*
X106481423Y-118122498D01*
X106546324Y-118336446D01*
X106651716Y-118533623D01*
X106793551Y-118706449D01*
X106836864Y-118741996D01*
X107858008Y-119763140D01*
X107893551Y-119806449D01*
X108066377Y-119948284D01*
X108263553Y-120053676D01*
X108477501Y-120118577D01*
X108578876Y-120128561D01*
X108619463Y-120204494D01*
X108698815Y-120301185D01*
X108795506Y-120380537D01*
X108905820Y-120439502D01*
X109025518Y-120475812D01*
X109150000Y-120488072D01*
X110850000Y-120488072D01*
X110974482Y-120475812D01*
X111094180Y-120439502D01*
X111204494Y-120380537D01*
X111301185Y-120301185D01*
X111380537Y-120204494D01*
X111439502Y-120094180D01*
X111475812Y-119974482D01*
X111488072Y-119850000D01*
X111488072Y-118900000D01*
X116461928Y-118900000D01*
X116474188Y-119024482D01*
X116510498Y-119144180D01*
X116569463Y-119254494D01*
X116648815Y-119351185D01*
X116745506Y-119430537D01*
X116855820Y-119489502D01*
X116975518Y-119525812D01*
X117100000Y-119538072D01*
X117714250Y-119535000D01*
X117873000Y-119376250D01*
X117873000Y-118127000D01*
X116623750Y-118127000D01*
X116465000Y-118285750D01*
X116461928Y-118900000D01*
X111488072Y-118900000D01*
X111488072Y-118150000D01*
X111475812Y-118025518D01*
X111439502Y-117905820D01*
X111380537Y-117795506D01*
X111301185Y-117698815D01*
X111204494Y-117619463D01*
X111094180Y-117560498D01*
X111021620Y-117538487D01*
X111153475Y-117406632D01*
X111315990Y-117163411D01*
X111342255Y-117100000D01*
X116461928Y-117100000D01*
X116465000Y-117714250D01*
X116623750Y-117873000D01*
X117873000Y-117873000D01*
X117873000Y-116623750D01*
X118127000Y-116623750D01*
X118127000Y-117873000D01*
X118147000Y-117873000D01*
X118147000Y-118127000D01*
X118127000Y-118127000D01*
X118127000Y-119376250D01*
X118285750Y-119535000D01*
X118900000Y-119538072D01*
X119024482Y-119525812D01*
X119144180Y-119489502D01*
X119254494Y-119430537D01*
X119351185Y-119351185D01*
X119430537Y-119254494D01*
X119489502Y-119144180D01*
X119495056Y-119125873D01*
X119561495Y-119192312D01*
X119812905Y-119360299D01*
X120092257Y-119476011D01*
X120388816Y-119535000D01*
X120691184Y-119535000D01*
X120987743Y-119476011D01*
X121267095Y-119360299D01*
X121518505Y-119192312D01*
X121732312Y-118978505D01*
X121784767Y-118900000D01*
X136461928Y-118900000D01*
X136474188Y-119024482D01*
X136510498Y-119144180D01*
X136569463Y-119254494D01*
X136648815Y-119351185D01*
X136745506Y-119430537D01*
X136855820Y-119489502D01*
X136975518Y-119525812D01*
X137100000Y-119538072D01*
X137714250Y-119535000D01*
X137873000Y-119376250D01*
X137873000Y-118127000D01*
X136623750Y-118127000D01*
X136465000Y-118285750D01*
X136461928Y-118900000D01*
X121784767Y-118900000D01*
X121900299Y-118727095D01*
X122016011Y-118447743D01*
X122075000Y-118151184D01*
X122075000Y-118070131D01*
X123045131Y-117100000D01*
X136461928Y-117100000D01*
X136465000Y-117714250D01*
X136623750Y-117873000D01*
X137873000Y-117873000D01*
X137873000Y-116623750D01*
X137714250Y-116465000D01*
X137100000Y-116461928D01*
X136975518Y-116474188D01*
X136855820Y-116510498D01*
X136745506Y-116569463D01*
X136648815Y-116648815D01*
X136569463Y-116745506D01*
X136510498Y-116855820D01*
X136474188Y-116975518D01*
X136461928Y-117100000D01*
X123045131Y-117100000D01*
X125010132Y-115135000D01*
X140944249Y-115135000D01*
X141000000Y-115140491D01*
X141055751Y-115135000D01*
X141055752Y-115135000D01*
X141222499Y-115118577D01*
X141436447Y-115053676D01*
X141633623Y-114948284D01*
X141806449Y-114806449D01*
X141841996Y-114763135D01*
X146763141Y-109841991D01*
X146806449Y-109806449D01*
X146948284Y-109633623D01*
X147053676Y-109436447D01*
X147118577Y-109222499D01*
X147135000Y-109055752D01*
X147140491Y-109000000D01*
X147135000Y-108944248D01*
X147135000Y-105470131D01*
X149470133Y-103135000D01*
X157529869Y-103135000D01*
X159945001Y-105550133D01*
X159945000Y-107034893D01*
X159926525Y-107053368D01*
X159810000Y-107227760D01*
X159693475Y-107053368D01*
X159486632Y-106846525D01*
X159243411Y-106684010D01*
X158973158Y-106572068D01*
X158686260Y-106515000D01*
X158393740Y-106515000D01*
X158106842Y-106572068D01*
X157836589Y-106684010D01*
X157593368Y-106846525D01*
X157461513Y-106978380D01*
X157439502Y-106905820D01*
X157380537Y-106795506D01*
X157301185Y-106698815D01*
X157204494Y-106619463D01*
X157094180Y-106560498D01*
X156974482Y-106524188D01*
X156850000Y-106511928D01*
X155150000Y-106511928D01*
X155025518Y-106524188D01*
X154905820Y-106560498D01*
X154795506Y-106619463D01*
X154698815Y-106698815D01*
X154619463Y-106795506D01*
X154582317Y-106865000D01*
X151515752Y-106865000D01*
X151460000Y-106859509D01*
X151404248Y-106865000D01*
X151237501Y-106881423D01*
X151023553Y-106946324D01*
X150826377Y-107051716D01*
X150653551Y-107193551D01*
X150618008Y-107236860D01*
X149879869Y-107975000D01*
X149853740Y-107975000D01*
X149566842Y-108032068D01*
X149296589Y-108144010D01*
X149053368Y-108306525D01*
X148846525Y-108513368D01*
X148684010Y-108756589D01*
X148572068Y-109026842D01*
X148515000Y-109313740D01*
X148515000Y-109606260D01*
X148572068Y-109893158D01*
X148684010Y-110163411D01*
X148846525Y-110406632D01*
X148978380Y-110538487D01*
X148905820Y-110560498D01*
X148795506Y-110619463D01*
X148698815Y-110698815D01*
X148619463Y-110795506D01*
X148560498Y-110905820D01*
X148524188Y-111025518D01*
X148511928Y-111150000D01*
X148511928Y-112850000D01*
X148524188Y-112974482D01*
X148560498Y-113094180D01*
X148619463Y-113204494D01*
X148698815Y-113301185D01*
X148795506Y-113380537D01*
X148905820Y-113439502D01*
X149025518Y-113475812D01*
X149150000Y-113488072D01*
X150850000Y-113488072D01*
X150974482Y-113475812D01*
X151094180Y-113439502D01*
X151204494Y-113380537D01*
X151301185Y-113301185D01*
X151380537Y-113204494D01*
X151417683Y-113135000D01*
X152944249Y-113135000D01*
X153000000Y-113140491D01*
X153055751Y-113135000D01*
X153055752Y-113135000D01*
X153222499Y-113118577D01*
X153436447Y-113053676D01*
X153633623Y-112948284D01*
X153806449Y-112806449D01*
X153841995Y-112763136D01*
X154470132Y-112135000D01*
X157264895Y-112135000D01*
X157193551Y-112193551D01*
X157158011Y-112236857D01*
X152529869Y-116865000D01*
X141575817Y-116865000D01*
X141518505Y-116807688D01*
X141267095Y-116639701D01*
X140987743Y-116523989D01*
X140691184Y-116465000D01*
X140388816Y-116465000D01*
X140092257Y-116523989D01*
X139812905Y-116639701D01*
X139561495Y-116807688D01*
X139495056Y-116874127D01*
X139489502Y-116855820D01*
X139430537Y-116745506D01*
X139351185Y-116648815D01*
X139254494Y-116569463D01*
X139144180Y-116510498D01*
X139024482Y-116474188D01*
X138900000Y-116461928D01*
X138285750Y-116465000D01*
X138127000Y-116623750D01*
X138127000Y-117873000D01*
X138147000Y-117873000D01*
X138147000Y-118127000D01*
X138127000Y-118127000D01*
X138127000Y-119376250D01*
X138285750Y-119535000D01*
X138900000Y-119538072D01*
X139024482Y-119525812D01*
X139144180Y-119489502D01*
X139254494Y-119430537D01*
X139351185Y-119351185D01*
X139430537Y-119254494D01*
X139489502Y-119144180D01*
X139495056Y-119125873D01*
X139561495Y-119192312D01*
X139812905Y-119360299D01*
X140092257Y-119476011D01*
X140388816Y-119535000D01*
X140691184Y-119535000D01*
X140987743Y-119476011D01*
X141267095Y-119360299D01*
X141518505Y-119192312D01*
X141575817Y-119135000D01*
X152944249Y-119135000D01*
X153000000Y-119140491D01*
X153055751Y-119135000D01*
X153055752Y-119135000D01*
X153222499Y-119118577D01*
X153436447Y-119053676D01*
X153633623Y-118948284D01*
X153692457Y-118900000D01*
X157461928Y-118900000D01*
X157474188Y-119024482D01*
X157510498Y-119144180D01*
X157569463Y-119254494D01*
X157648815Y-119351185D01*
X157745506Y-119430537D01*
X157855820Y-119489502D01*
X157975518Y-119525812D01*
X158100000Y-119538072D01*
X158714250Y-119535000D01*
X158873000Y-119376250D01*
X158873000Y-118127000D01*
X157623750Y-118127000D01*
X157465000Y-118285750D01*
X157461928Y-118900000D01*
X153692457Y-118900000D01*
X153806449Y-118806449D01*
X153841996Y-118763135D01*
X155505131Y-117100000D01*
X157461928Y-117100000D01*
X157465000Y-117714250D01*
X157623750Y-117873000D01*
X158873000Y-117873000D01*
X158873000Y-116623750D01*
X158714250Y-116465000D01*
X158100000Y-116461928D01*
X157975518Y-116474188D01*
X157855820Y-116510498D01*
X157745506Y-116569463D01*
X157648815Y-116648815D01*
X157569463Y-116745506D01*
X157510498Y-116855820D01*
X157474188Y-116975518D01*
X157461928Y-117100000D01*
X155505131Y-117100000D01*
X158470132Y-114135000D01*
X158564249Y-114135000D01*
X158620000Y-114140491D01*
X158675751Y-114135000D01*
X158675752Y-114135000D01*
X158842499Y-114118577D01*
X159056447Y-114053676D01*
X159253623Y-113948284D01*
X159426449Y-113806449D01*
X159461996Y-113763135D01*
X161220132Y-112005000D01*
X161964249Y-112005000D01*
X162020000Y-112010491D01*
X162075751Y-112005000D01*
X162075752Y-112005000D01*
X162242499Y-111988577D01*
X162456447Y-111923676D01*
X162653623Y-111818284D01*
X162826449Y-111676449D01*
X162861995Y-111633136D01*
X164383146Y-110111987D01*
X164426449Y-110076449D01*
X164466201Y-110028012D01*
X164568284Y-109903623D01*
X164673676Y-109706447D01*
X164738577Y-109492499D01*
X164760491Y-109270000D01*
X164755000Y-109214248D01*
X164755000Y-108965107D01*
X164773475Y-108946632D01*
X164890000Y-108772240D01*
X165006525Y-108946632D01*
X165025000Y-108965107D01*
X165025001Y-114369867D01*
X162552843Y-116842026D01*
X162518505Y-116807688D01*
X162267095Y-116639701D01*
X161987743Y-116523989D01*
X161691184Y-116465000D01*
X161388816Y-116465000D01*
X161092257Y-116523989D01*
X160812905Y-116639701D01*
X160561495Y-116807688D01*
X160495056Y-116874127D01*
X160489502Y-116855820D01*
X160430537Y-116745506D01*
X160351185Y-116648815D01*
X160254494Y-116569463D01*
X160144180Y-116510498D01*
X160024482Y-116474188D01*
X159900000Y-116461928D01*
X159285750Y-116465000D01*
X159127000Y-116623750D01*
X159127000Y-117873000D01*
X159147000Y-117873000D01*
X159147000Y-118127000D01*
X159127000Y-118127000D01*
X159127000Y-119376250D01*
X159285750Y-119535000D01*
X159900000Y-119538072D01*
X160024482Y-119525812D01*
X160144180Y-119489502D01*
X160254494Y-119430537D01*
X160351185Y-119351185D01*
X160430537Y-119254494D01*
X160489502Y-119144180D01*
X160495056Y-119125873D01*
X160561495Y-119192312D01*
X160812905Y-119360299D01*
X161092257Y-119476011D01*
X161388816Y-119535000D01*
X161691184Y-119535000D01*
X161987743Y-119476011D01*
X162267095Y-119360299D01*
X162518505Y-119192312D01*
X162575817Y-119135000D01*
X162944249Y-119135000D01*
X163000000Y-119140491D01*
X163055751Y-119135000D01*
X163055752Y-119135000D01*
X163222499Y-119118577D01*
X163436447Y-119053676D01*
X163633623Y-118948284D01*
X163692457Y-118900000D01*
X178461928Y-118900000D01*
X178474188Y-119024482D01*
X178510498Y-119144180D01*
X178569463Y-119254494D01*
X178648815Y-119351185D01*
X178745506Y-119430537D01*
X178855820Y-119489502D01*
X178975518Y-119525812D01*
X179100000Y-119538072D01*
X179714250Y-119535000D01*
X179873000Y-119376250D01*
X179873000Y-118127000D01*
X178623750Y-118127000D01*
X178465000Y-118285750D01*
X178461928Y-118900000D01*
X163692457Y-118900000D01*
X163806449Y-118806449D01*
X163841996Y-118763135D01*
X165505131Y-117100000D01*
X178461928Y-117100000D01*
X178465000Y-117714250D01*
X178623750Y-117873000D01*
X179873000Y-117873000D01*
X179873000Y-116623750D01*
X179714250Y-116465000D01*
X179100000Y-116461928D01*
X178975518Y-116474188D01*
X178855820Y-116510498D01*
X178745506Y-116569463D01*
X178648815Y-116648815D01*
X178569463Y-116745506D01*
X178510498Y-116855820D01*
X178474188Y-116975518D01*
X178461928Y-117100000D01*
X165505131Y-117100000D01*
X166923141Y-115681991D01*
X166966449Y-115646449D01*
X167108284Y-115473623D01*
X167213676Y-115276447D01*
X167278577Y-115062499D01*
X167295000Y-114895752D01*
X167300491Y-114840000D01*
X167295000Y-114784248D01*
X167295000Y-111850000D01*
X173511928Y-111850000D01*
X173524188Y-111974482D01*
X173560498Y-112094180D01*
X173619463Y-112204494D01*
X173698815Y-112301185D01*
X173795506Y-112380537D01*
X173905820Y-112439502D01*
X174025518Y-112475812D01*
X174150000Y-112488072D01*
X174714250Y-112485000D01*
X174873000Y-112326250D01*
X174873000Y-111127000D01*
X175127000Y-111127000D01*
X175127000Y-112326250D01*
X175285750Y-112485000D01*
X175850000Y-112488072D01*
X175974482Y-112475812D01*
X176094180Y-112439502D01*
X176204494Y-112380537D01*
X176301185Y-112301185D01*
X176380537Y-112204494D01*
X176439502Y-112094180D01*
X176475812Y-111974482D01*
X176488072Y-111850000D01*
X180511928Y-111850000D01*
X180524188Y-111974482D01*
X180560498Y-112094180D01*
X180619463Y-112204494D01*
X180698815Y-112301185D01*
X180795506Y-112380537D01*
X180905820Y-112439502D01*
X181025518Y-112475812D01*
X181150000Y-112488072D01*
X181714250Y-112485000D01*
X181873000Y-112326250D01*
X181873000Y-111127000D01*
X182127000Y-111127000D01*
X182127000Y-112326250D01*
X182285750Y-112485000D01*
X182850000Y-112488072D01*
X182974482Y-112475812D01*
X183094180Y-112439502D01*
X183204494Y-112380537D01*
X183301185Y-112301185D01*
X183380537Y-112204494D01*
X183439502Y-112094180D01*
X183475812Y-111974482D01*
X183488072Y-111850000D01*
X183485000Y-111285750D01*
X183326250Y-111127000D01*
X182127000Y-111127000D01*
X181873000Y-111127000D01*
X180673750Y-111127000D01*
X180515000Y-111285750D01*
X180511928Y-111850000D01*
X176488072Y-111850000D01*
X176485000Y-111285750D01*
X176326250Y-111127000D01*
X175127000Y-111127000D01*
X174873000Y-111127000D01*
X173673750Y-111127000D01*
X173515000Y-111285750D01*
X173511928Y-111850000D01*
X167295000Y-111850000D01*
X167295000Y-110150000D01*
X173511928Y-110150000D01*
X173515000Y-110714250D01*
X173673750Y-110873000D01*
X174873000Y-110873000D01*
X174873000Y-110853000D01*
X175127000Y-110853000D01*
X175127000Y-110873000D01*
X176326250Y-110873000D01*
X176485000Y-110714250D01*
X176488072Y-110150000D01*
X176475812Y-110025518D01*
X176439502Y-109905820D01*
X176380537Y-109795506D01*
X176301185Y-109698815D01*
X176204494Y-109619463D01*
X176094180Y-109560498D01*
X176021620Y-109538487D01*
X176153475Y-109406632D01*
X176315990Y-109163411D01*
X176427932Y-108893158D01*
X176485000Y-108606260D01*
X176485000Y-108313740D01*
X176427932Y-108026842D01*
X176315990Y-107756589D01*
X176153475Y-107513368D01*
X176135000Y-107494893D01*
X176135000Y-103470131D01*
X178470133Y-101135000D01*
X181582317Y-101135000D01*
X181619463Y-101204494D01*
X181698815Y-101301185D01*
X181795506Y-101380537D01*
X181905820Y-101439502D01*
X182025518Y-101475812D01*
X182150000Y-101488072D01*
X183850000Y-101488072D01*
X183974482Y-101475812D01*
X184094180Y-101439502D01*
X184204494Y-101380537D01*
X184301185Y-101301185D01*
X184380537Y-101204494D01*
X184405000Y-101158727D01*
X184405001Y-102109867D01*
X181236865Y-105278004D01*
X181193551Y-105313551D01*
X181051716Y-105486377D01*
X180946325Y-105683553D01*
X180946324Y-105683554D01*
X180881423Y-105897502D01*
X180859509Y-106120000D01*
X180865000Y-106175752D01*
X180865001Y-107494892D01*
X180846525Y-107513368D01*
X180684010Y-107756589D01*
X180572068Y-108026842D01*
X180515000Y-108313740D01*
X180515000Y-108606260D01*
X180572068Y-108893158D01*
X180684010Y-109163411D01*
X180846525Y-109406632D01*
X180978380Y-109538487D01*
X180905820Y-109560498D01*
X180795506Y-109619463D01*
X180698815Y-109698815D01*
X180619463Y-109795506D01*
X180560498Y-109905820D01*
X180524188Y-110025518D01*
X180511928Y-110150000D01*
X180515000Y-110714250D01*
X180673750Y-110873000D01*
X181873000Y-110873000D01*
X181873000Y-110853000D01*
X182127000Y-110853000D01*
X182127000Y-110873000D01*
X183326250Y-110873000D01*
X183485000Y-110714250D01*
X183488072Y-110150000D01*
X183475812Y-110025518D01*
X183439502Y-109905820D01*
X183380537Y-109795506D01*
X183301185Y-109698815D01*
X183204494Y-109619463D01*
X183094180Y-109560498D01*
X183021620Y-109538487D01*
X183153475Y-109406632D01*
X183315990Y-109163411D01*
X183427932Y-108893158D01*
X183485000Y-108606260D01*
X183485000Y-108313740D01*
X183427932Y-108026842D01*
X183315990Y-107756589D01*
X183153475Y-107513368D01*
X183135000Y-107494893D01*
X183135000Y-106590131D01*
X186303141Y-103421991D01*
X186346449Y-103386449D01*
X186488284Y-103213623D01*
X186593676Y-103016447D01*
X186658577Y-102802499D01*
X186675000Y-102635752D01*
X186680491Y-102580001D01*
X186675000Y-102524249D01*
X186675000Y-100965107D01*
X186693475Y-100946632D01*
X186810000Y-100772240D01*
X186926525Y-100946632D01*
X186945001Y-100965108D01*
X186945000Y-115149868D01*
X185229869Y-116865000D01*
X183575817Y-116865000D01*
X183518505Y-116807688D01*
X183267095Y-116639701D01*
X182987743Y-116523989D01*
X182691184Y-116465000D01*
X182388816Y-116465000D01*
X182092257Y-116523989D01*
X181812905Y-116639701D01*
X181561495Y-116807688D01*
X181495056Y-116874127D01*
X181489502Y-116855820D01*
X181430537Y-116745506D01*
X181351185Y-116648815D01*
X181254494Y-116569463D01*
X181144180Y-116510498D01*
X181024482Y-116474188D01*
X180900000Y-116461928D01*
X180285750Y-116465000D01*
X180127000Y-116623750D01*
X180127000Y-117873000D01*
X180147000Y-117873000D01*
X180147000Y-118127000D01*
X180127000Y-118127000D01*
X180127000Y-119376250D01*
X180285750Y-119535000D01*
X180900000Y-119538072D01*
X181024482Y-119525812D01*
X181144180Y-119489502D01*
X181254494Y-119430537D01*
X181351185Y-119351185D01*
X181430537Y-119254494D01*
X181489502Y-119144180D01*
X181495056Y-119125873D01*
X181561495Y-119192312D01*
X181812905Y-119360299D01*
X182092257Y-119476011D01*
X182388816Y-119535000D01*
X182691184Y-119535000D01*
X182987743Y-119476011D01*
X183267095Y-119360299D01*
X183518505Y-119192312D01*
X183575817Y-119135000D01*
X185644249Y-119135000D01*
X185700000Y-119140491D01*
X185755751Y-119135000D01*
X185755752Y-119135000D01*
X185922499Y-119118577D01*
X186136447Y-119053676D01*
X186333623Y-118948284D01*
X186392457Y-118900000D01*
X199461928Y-118900000D01*
X199474188Y-119024482D01*
X199510498Y-119144180D01*
X199569463Y-119254494D01*
X199648815Y-119351185D01*
X199745506Y-119430537D01*
X199855820Y-119489502D01*
X199975518Y-119525812D01*
X200100000Y-119538072D01*
X200714250Y-119535000D01*
X200873000Y-119376250D01*
X200873000Y-118127000D01*
X199623750Y-118127000D01*
X199465000Y-118285750D01*
X199461928Y-118900000D01*
X186392457Y-118900000D01*
X186506449Y-118806449D01*
X186541996Y-118763135D01*
X188205131Y-117100000D01*
X199461928Y-117100000D01*
X199465000Y-117714250D01*
X199623750Y-117873000D01*
X200873000Y-117873000D01*
X200873000Y-116623750D01*
X200714250Y-116465000D01*
X200100000Y-116461928D01*
X199975518Y-116474188D01*
X199855820Y-116510498D01*
X199745506Y-116569463D01*
X199648815Y-116648815D01*
X199569463Y-116745506D01*
X199510498Y-116855820D01*
X199474188Y-116975518D01*
X199461928Y-117100000D01*
X188205131Y-117100000D01*
X188843141Y-116461991D01*
X188886449Y-116426449D01*
X189028284Y-116253623D01*
X189133676Y-116056447D01*
X189198577Y-115842499D01*
X189215000Y-115675752D01*
X189215000Y-115675743D01*
X189220490Y-115620001D01*
X189215000Y-115564259D01*
X189215000Y-100965107D01*
X189233475Y-100946632D01*
X189350000Y-100772240D01*
X189466525Y-100946632D01*
X189673368Y-101153475D01*
X189916589Y-101315990D01*
X190186842Y-101427932D01*
X190473740Y-101485000D01*
X190766260Y-101485000D01*
X191053158Y-101427932D01*
X191323411Y-101315990D01*
X191566632Y-101153475D01*
X191585107Y-101135000D01*
X193199869Y-101135000D01*
X199435000Y-107370133D01*
X199435001Y-110404239D01*
X199429509Y-110460000D01*
X199451423Y-110682498D01*
X199516324Y-110896446D01*
X199544032Y-110948283D01*
X199621717Y-111093623D01*
X199763552Y-111266449D01*
X199806860Y-111301991D01*
X202405000Y-113900132D01*
X202405001Y-116714390D01*
X202351185Y-116648815D01*
X202254494Y-116569463D01*
X202144180Y-116510498D01*
X202024482Y-116474188D01*
X201900000Y-116461928D01*
X201285750Y-116465000D01*
X201127000Y-116623750D01*
X201127000Y-117873000D01*
X201147000Y-117873000D01*
X201147000Y-118127000D01*
X201127000Y-118127000D01*
X201127000Y-119376250D01*
X201285750Y-119535000D01*
X201900000Y-119538072D01*
X202024482Y-119525812D01*
X202144180Y-119489502D01*
X202254494Y-119430537D01*
X202351185Y-119351185D01*
X202430537Y-119254494D01*
X202489502Y-119144180D01*
X202495056Y-119125873D01*
X202561495Y-119192312D01*
X202812905Y-119360299D01*
X203092257Y-119476011D01*
X203388816Y-119535000D01*
X203691184Y-119535000D01*
X203987743Y-119476011D01*
X204267095Y-119360299D01*
X204518505Y-119192312D01*
X204732312Y-118978505D01*
X204900299Y-118727095D01*
X205016011Y-118447743D01*
X205075000Y-118151184D01*
X205075000Y-117848816D01*
X205016011Y-117552257D01*
X204900299Y-117272905D01*
X204732312Y-117021495D01*
X204675000Y-116964183D01*
X204675000Y-113485741D01*
X204680490Y-113429999D01*
X204675000Y-113374257D01*
X204675000Y-113374248D01*
X204658577Y-113207501D01*
X204593676Y-112993553D01*
X204488284Y-112796377D01*
X204346449Y-112623551D01*
X204303141Y-112588009D01*
X201705000Y-109989869D01*
X201705000Y-109639297D01*
X204337720Y-109639297D01*
X204337720Y-110360703D01*
X204478460Y-111068248D01*
X204754530Y-111734740D01*
X205155322Y-112334567D01*
X205665433Y-112844678D01*
X206265260Y-113245470D01*
X206931752Y-113521540D01*
X207639297Y-113662280D01*
X208360703Y-113662280D01*
X209068248Y-113521540D01*
X209734740Y-113245470D01*
X210334567Y-112844678D01*
X210844678Y-112334567D01*
X211245470Y-111734740D01*
X211521540Y-111068248D01*
X211662280Y-110360703D01*
X211662280Y-109639297D01*
X211521540Y-108931752D01*
X211245470Y-108265260D01*
X210844678Y-107665433D01*
X210334567Y-107155322D01*
X209734740Y-106754530D01*
X209068248Y-106478460D01*
X208360703Y-106337720D01*
X207639297Y-106337720D01*
X206931752Y-106478460D01*
X206265260Y-106754530D01*
X205665433Y-107155322D01*
X205155322Y-107665433D01*
X204754530Y-108265260D01*
X204478460Y-108931752D01*
X204337720Y-109639297D01*
X201705000Y-109639297D01*
X201705000Y-106955752D01*
X201710491Y-106900000D01*
X201688577Y-106677501D01*
X201623676Y-106463553D01*
X201518284Y-106266377D01*
X201411989Y-106136856D01*
X201411987Y-106136854D01*
X201376449Y-106093551D01*
X201333146Y-106058013D01*
X194511996Y-99236865D01*
X194476449Y-99193551D01*
X194303623Y-99051716D01*
X194106447Y-98946324D01*
X193892499Y-98881423D01*
X193725752Y-98865000D01*
X193725751Y-98865000D01*
X193670000Y-98859509D01*
X193614249Y-98865000D01*
X191585107Y-98865000D01*
X191566632Y-98846525D01*
X191323411Y-98684010D01*
X191053158Y-98572068D01*
X190766260Y-98515000D01*
X190473740Y-98515000D01*
X190186842Y-98572068D01*
X189916589Y-98684010D01*
X189673368Y-98846525D01*
X189466525Y-99053368D01*
X189350000Y-99227760D01*
X189233475Y-99053368D01*
X189026632Y-98846525D01*
X188783411Y-98684010D01*
X188513158Y-98572068D01*
X188226260Y-98515000D01*
X187933740Y-98515000D01*
X187646842Y-98572068D01*
X187376589Y-98684010D01*
X187133368Y-98846525D01*
X186926525Y-99053368D01*
X186810000Y-99227760D01*
X186693475Y-99053368D01*
X186486632Y-98846525D01*
X186243411Y-98684010D01*
X185973158Y-98572068D01*
X185686260Y-98515000D01*
X185393740Y-98515000D01*
X185106842Y-98572068D01*
X184836589Y-98684010D01*
X184593368Y-98846525D01*
X184461513Y-98978380D01*
X184439502Y-98905820D01*
X184380537Y-98795506D01*
X184301185Y-98698815D01*
X184204494Y-98619463D01*
X184094180Y-98560498D01*
X183974482Y-98524188D01*
X183850000Y-98511928D01*
X182150000Y-98511928D01*
X182025518Y-98524188D01*
X181905820Y-98560498D01*
X181795506Y-98619463D01*
X181698815Y-98698815D01*
X181619463Y-98795506D01*
X181582317Y-98865000D01*
X178055752Y-98865000D01*
X178000000Y-98859509D01*
X177777501Y-98881423D01*
X177563553Y-98946324D01*
X177366377Y-99051716D01*
X177236856Y-99158011D01*
X177236855Y-99158012D01*
X177193551Y-99193551D01*
X177158013Y-99236854D01*
X174236860Y-102158009D01*
X174193552Y-102193551D01*
X174051717Y-102366377D01*
X174014265Y-102436446D01*
X173946324Y-102563554D01*
X173881423Y-102777502D01*
X173859509Y-103000000D01*
X173865001Y-103055761D01*
X173865000Y-107494893D01*
X173846525Y-107513368D01*
X173684010Y-107756589D01*
X173572068Y-108026842D01*
X173515000Y-108313740D01*
X173515000Y-108606260D01*
X173572068Y-108893158D01*
X173684010Y-109163411D01*
X173846525Y-109406632D01*
X173978380Y-109538487D01*
X173905820Y-109560498D01*
X173795506Y-109619463D01*
X173698815Y-109698815D01*
X173619463Y-109795506D01*
X173560498Y-109905820D01*
X173524188Y-110025518D01*
X173511928Y-110150000D01*
X167295000Y-110150000D01*
X167295000Y-108965107D01*
X167313475Y-108946632D01*
X167475990Y-108703411D01*
X167587932Y-108433158D01*
X167645000Y-108146260D01*
X167645000Y-107853740D01*
X167587932Y-107566842D01*
X167475990Y-107296589D01*
X167313475Y-107053368D01*
X167106632Y-106846525D01*
X166863411Y-106684010D01*
X166593158Y-106572068D01*
X166306260Y-106515000D01*
X166013740Y-106515000D01*
X165726842Y-106572068D01*
X165456589Y-106684010D01*
X165213368Y-106846525D01*
X165006525Y-107053368D01*
X164890000Y-107227760D01*
X164773475Y-107053368D01*
X164566632Y-106846525D01*
X164323411Y-106684010D01*
X164053158Y-106572068D01*
X163766260Y-106515000D01*
X163473740Y-106515000D01*
X163186842Y-106572068D01*
X162916589Y-106684010D01*
X162673368Y-106846525D01*
X162466525Y-107053368D01*
X162350000Y-107227760D01*
X162233475Y-107053368D01*
X162215000Y-107034893D01*
X162215000Y-105135752D01*
X162220491Y-105080000D01*
X162198577Y-104857501D01*
X162133676Y-104643553D01*
X162028284Y-104446377D01*
X161962630Y-104366378D01*
X161886449Y-104273551D01*
X161843141Y-104238009D01*
X158841996Y-101236865D01*
X158806449Y-101193551D01*
X158633623Y-101051716D01*
X158436447Y-100946324D01*
X158222499Y-100881423D01*
X158055752Y-100865000D01*
X158055751Y-100865000D01*
X158000000Y-100859509D01*
X157944249Y-100865000D01*
X149055752Y-100865000D01*
X149000000Y-100859509D01*
X148777501Y-100881423D01*
X148563553Y-100946324D01*
X148366377Y-101051716D01*
X148236856Y-101158011D01*
X148236855Y-101158012D01*
X148193551Y-101193551D01*
X148158013Y-101236854D01*
X145236865Y-104158004D01*
X145193551Y-104193551D01*
X145135000Y-104264895D01*
X145135000Y-98884284D01*
X145271680Y-98679727D01*
X145379853Y-98418574D01*
X145435000Y-98141335D01*
X145435000Y-97858665D01*
X145379853Y-97581426D01*
X145271680Y-97320273D01*
X145114637Y-97085241D01*
X144914759Y-96885363D01*
X144679727Y-96728320D01*
X144418574Y-96620147D01*
X144141335Y-96565000D01*
X143858665Y-96565000D01*
X143581426Y-96620147D01*
X143320273Y-96728320D01*
X143085241Y-96885363D01*
X142885363Y-97085241D01*
X142728320Y-97320273D01*
X142620147Y-97581426D01*
X142565000Y-97858665D01*
X142565000Y-98141335D01*
X142620147Y-98418574D01*
X142728320Y-98679727D01*
X142865001Y-98884285D01*
X142865000Y-104529868D01*
X139776860Y-107618009D01*
X139733552Y-107653551D01*
X139591717Y-107826377D01*
X139568070Y-107870618D01*
X139486324Y-108023554D01*
X139476557Y-108055752D01*
X139421423Y-108237501D01*
X139408730Y-108366378D01*
X139399509Y-108460000D01*
X139405000Y-108515751D01*
X139405000Y-108714389D01*
X139351185Y-108648815D01*
X139254494Y-108569463D01*
X139144180Y-108510498D01*
X139024482Y-108474188D01*
X138900000Y-108461928D01*
X138285750Y-108465000D01*
X138127000Y-108623750D01*
X138127000Y-109873000D01*
X138147000Y-109873000D01*
X138147000Y-110127000D01*
X138127000Y-110127000D01*
X138127000Y-111376250D01*
X138285750Y-111535000D01*
X138900000Y-111538072D01*
X139024482Y-111525812D01*
X139144180Y-111489502D01*
X139254494Y-111430537D01*
X139351185Y-111351185D01*
X139430537Y-111254494D01*
X139489502Y-111144180D01*
X139495056Y-111125873D01*
X139561495Y-111192312D01*
X139812905Y-111360299D01*
X140092257Y-111476011D01*
X140388816Y-111535000D01*
X140691184Y-111535000D01*
X140987743Y-111476011D01*
X141267095Y-111360299D01*
X141518505Y-111192312D01*
X141732312Y-110978505D01*
X141900299Y-110727095D01*
X142016011Y-110447743D01*
X142075000Y-110151184D01*
X142075000Y-109848816D01*
X142016011Y-109552257D01*
X141900299Y-109272905D01*
X141732312Y-109021495D01*
X141675000Y-108964183D01*
X141675000Y-108930131D01*
X144763141Y-105841991D01*
X144806449Y-105806449D01*
X144865000Y-105735104D01*
X144865001Y-108529867D01*
X140529869Y-112865000D01*
X124595741Y-112865000D01*
X124539999Y-112859510D01*
X124484257Y-112865000D01*
X124484248Y-112865000D01*
X124317501Y-112881423D01*
X124103553Y-112946324D01*
X123906377Y-113051716D01*
X123733551Y-113193551D01*
X123698011Y-113236857D01*
X120469869Y-116465000D01*
X120388816Y-116465000D01*
X120092257Y-116523989D01*
X119812905Y-116639701D01*
X119561495Y-116807688D01*
X119495056Y-116874127D01*
X119489502Y-116855820D01*
X119430537Y-116745506D01*
X119351185Y-116648815D01*
X119254494Y-116569463D01*
X119144180Y-116510498D01*
X119024482Y-116474188D01*
X118900000Y-116461928D01*
X118285750Y-116465000D01*
X118127000Y-116623750D01*
X117873000Y-116623750D01*
X117714250Y-116465000D01*
X117100000Y-116461928D01*
X116975518Y-116474188D01*
X116855820Y-116510498D01*
X116745506Y-116569463D01*
X116648815Y-116648815D01*
X116569463Y-116745506D01*
X116510498Y-116855820D01*
X116474188Y-116975518D01*
X116461928Y-117100000D01*
X111342255Y-117100000D01*
X111427932Y-116893158D01*
X111485000Y-116606260D01*
X111485000Y-116313740D01*
X111427932Y-116026842D01*
X111315990Y-115756589D01*
X111153475Y-115513368D01*
X111135000Y-115494893D01*
X111135000Y-114800131D01*
X113763146Y-112171987D01*
X113806449Y-112136449D01*
X113874380Y-112053676D01*
X113948284Y-111963623D01*
X114053676Y-111766447D01*
X114118577Y-111552499D01*
X114140491Y-111330000D01*
X114135000Y-111274248D01*
X114135000Y-110900000D01*
X116461928Y-110900000D01*
X116474188Y-111024482D01*
X116510498Y-111144180D01*
X116569463Y-111254494D01*
X116648815Y-111351185D01*
X116745506Y-111430537D01*
X116855820Y-111489502D01*
X116975518Y-111525812D01*
X117100000Y-111538072D01*
X117714250Y-111535000D01*
X117873000Y-111376250D01*
X117873000Y-110127000D01*
X116623750Y-110127000D01*
X116465000Y-110285750D01*
X116461928Y-110900000D01*
X114135000Y-110900000D01*
X114135000Y-109100000D01*
X116461928Y-109100000D01*
X116465000Y-109714250D01*
X116623750Y-109873000D01*
X117873000Y-109873000D01*
X117873000Y-108623750D01*
X118127000Y-108623750D01*
X118127000Y-109873000D01*
X118147000Y-109873000D01*
X118147000Y-110127000D01*
X118127000Y-110127000D01*
X118127000Y-111376250D01*
X118285750Y-111535000D01*
X118900000Y-111538072D01*
X119024482Y-111525812D01*
X119144180Y-111489502D01*
X119254494Y-111430537D01*
X119351185Y-111351185D01*
X119430537Y-111254494D01*
X119489502Y-111144180D01*
X119495056Y-111125873D01*
X119561495Y-111192312D01*
X119812905Y-111360299D01*
X120092257Y-111476011D01*
X120388816Y-111535000D01*
X120691184Y-111535000D01*
X120987743Y-111476011D01*
X121267095Y-111360299D01*
X121518505Y-111192312D01*
X121575817Y-111135000D01*
X121944249Y-111135000D01*
X122000000Y-111140491D01*
X122055751Y-111135000D01*
X122055752Y-111135000D01*
X122222499Y-111118577D01*
X122436447Y-111053676D01*
X122633623Y-110948284D01*
X122692457Y-110900000D01*
X136461928Y-110900000D01*
X136474188Y-111024482D01*
X136510498Y-111144180D01*
X136569463Y-111254494D01*
X136648815Y-111351185D01*
X136745506Y-111430537D01*
X136855820Y-111489502D01*
X136975518Y-111525812D01*
X137100000Y-111538072D01*
X137714250Y-111535000D01*
X137873000Y-111376250D01*
X137873000Y-110127000D01*
X136623750Y-110127000D01*
X136465000Y-110285750D01*
X136461928Y-110900000D01*
X122692457Y-110900000D01*
X122806449Y-110806449D01*
X122841996Y-110763135D01*
X124505131Y-109100000D01*
X136461928Y-109100000D01*
X136465000Y-109714250D01*
X136623750Y-109873000D01*
X137873000Y-109873000D01*
X137873000Y-108623750D01*
X137714250Y-108465000D01*
X137100000Y-108461928D01*
X136975518Y-108474188D01*
X136855820Y-108510498D01*
X136745506Y-108569463D01*
X136648815Y-108648815D01*
X136569463Y-108745506D01*
X136510498Y-108855820D01*
X136474188Y-108975518D01*
X136461928Y-109100000D01*
X124505131Y-109100000D01*
X129470132Y-104135000D01*
X137115716Y-104135000D01*
X137320273Y-104271680D01*
X137581426Y-104379853D01*
X137858665Y-104435000D01*
X138141335Y-104435000D01*
X138418574Y-104379853D01*
X138679727Y-104271680D01*
X138914759Y-104114637D01*
X139114637Y-103914759D01*
X139271680Y-103679727D01*
X139379853Y-103418574D01*
X139435000Y-103141335D01*
X139435000Y-102858665D01*
X139379853Y-102581426D01*
X139271680Y-102320273D01*
X139114637Y-102085241D01*
X138914759Y-101885363D01*
X138679727Y-101728320D01*
X138418574Y-101620147D01*
X138141335Y-101565000D01*
X137858665Y-101565000D01*
X137581426Y-101620147D01*
X137320273Y-101728320D01*
X137115716Y-101865000D01*
X129055751Y-101865000D01*
X129000000Y-101859509D01*
X128944248Y-101865000D01*
X128777501Y-101881423D01*
X128563553Y-101946324D01*
X128366377Y-102051716D01*
X128193551Y-102193551D01*
X128158011Y-102236857D01*
X121552843Y-108842026D01*
X121518505Y-108807688D01*
X121267095Y-108639701D01*
X120987743Y-108523989D01*
X120691184Y-108465000D01*
X120388816Y-108465000D01*
X120092257Y-108523989D01*
X119812905Y-108639701D01*
X119561495Y-108807688D01*
X119495056Y-108874127D01*
X119489502Y-108855820D01*
X119430537Y-108745506D01*
X119351185Y-108648815D01*
X119254494Y-108569463D01*
X119144180Y-108510498D01*
X119024482Y-108474188D01*
X118900000Y-108461928D01*
X118285750Y-108465000D01*
X118127000Y-108623750D01*
X117873000Y-108623750D01*
X117714250Y-108465000D01*
X117100000Y-108461928D01*
X116975518Y-108474188D01*
X116855820Y-108510498D01*
X116745506Y-108569463D01*
X116648815Y-108648815D01*
X116569463Y-108745506D01*
X116510498Y-108855820D01*
X116474188Y-108975518D01*
X116461928Y-109100000D01*
X114135000Y-109100000D01*
X114135000Y-107470131D01*
X115470132Y-106135000D01*
X119134249Y-106135000D01*
X119190000Y-106140491D01*
X119245751Y-106135000D01*
X119245752Y-106135000D01*
X119412499Y-106118577D01*
X119626447Y-106053676D01*
X119823623Y-105948284D01*
X119996449Y-105806449D01*
X120031995Y-105763136D01*
X121838146Y-103956987D01*
X121881449Y-103921449D01*
X122023284Y-103748623D01*
X122128676Y-103551447D01*
X122193577Y-103337499D01*
X122210000Y-103170752D01*
X122210000Y-103170751D01*
X122215491Y-103115000D01*
X122210000Y-103059248D01*
X122210000Y-102390741D01*
X122215490Y-102334999D01*
X122210000Y-102279257D01*
X122210000Y-102279249D01*
X122193577Y-102112502D01*
X122128676Y-101898553D01*
X122023284Y-101701377D01*
X121881449Y-101528551D01*
X121838140Y-101493009D01*
X120111996Y-99766865D01*
X120076449Y-99723551D01*
X119903623Y-99581716D01*
X119706447Y-99476324D01*
X119492499Y-99411423D01*
X119325752Y-99395000D01*
X119325751Y-99395000D01*
X119270000Y-99389509D01*
X119214249Y-99395000D01*
X114177436Y-99395000D01*
X114204494Y-99380537D01*
X114301185Y-99301185D01*
X114380537Y-99204494D01*
X114417683Y-99135000D01*
X122795716Y-99135000D01*
X123000273Y-99271680D01*
X123261426Y-99379853D01*
X123538665Y-99435000D01*
X123821335Y-99435000D01*
X124098574Y-99379853D01*
X124359727Y-99271680D01*
X124594759Y-99114637D01*
X124794637Y-98914759D01*
X124951680Y-98679727D01*
X125059853Y-98418574D01*
X125115000Y-98141335D01*
X125115000Y-97858665D01*
X125059853Y-97581426D01*
X124951680Y-97320273D01*
X124794637Y-97085241D01*
X124594759Y-96885363D01*
X124359727Y-96728320D01*
X124098574Y-96620147D01*
X123821335Y-96565000D01*
X123538665Y-96565000D01*
X123261426Y-96620147D01*
X123000273Y-96728320D01*
X122795716Y-96865000D01*
X114417683Y-96865000D01*
X114380537Y-96795506D01*
X114301185Y-96698815D01*
X114204494Y-96619463D01*
X114094180Y-96560498D01*
X113974482Y-96524188D01*
X113850000Y-96511928D01*
X112150000Y-96511928D01*
X112025518Y-96524188D01*
X111905820Y-96560498D01*
X111795506Y-96619463D01*
X111698815Y-96698815D01*
X111619463Y-96795506D01*
X111560498Y-96905820D01*
X111538487Y-96978380D01*
X111406632Y-96846525D01*
X111163411Y-96684010D01*
X110893158Y-96572068D01*
X110606260Y-96515000D01*
X110313740Y-96515000D01*
X110026842Y-96572068D01*
X109756589Y-96684010D01*
X109513368Y-96846525D01*
X109306525Y-97053368D01*
X109184805Y-97235534D01*
X109115178Y-97118645D01*
X108920269Y-96902412D01*
X108686920Y-96728359D01*
X108424099Y-96603175D01*
X108276890Y-96558524D01*
X108047000Y-96679845D01*
X108047000Y-97873000D01*
X108067000Y-97873000D01*
X108067000Y-98127000D01*
X108047000Y-98127000D01*
X108047000Y-99320155D01*
X108276890Y-99441476D01*
X108424099Y-99396825D01*
X108686920Y-99271641D01*
X108920269Y-99097588D01*
X109115178Y-98881355D01*
X109184805Y-98764466D01*
X109306525Y-98946632D01*
X109325000Y-98965107D01*
X109325001Y-101404239D01*
X109319509Y-101460000D01*
X109341423Y-101682498D01*
X109406324Y-101896446D01*
X109432985Y-101946325D01*
X109511717Y-102093623D01*
X109653552Y-102266449D01*
X109696860Y-102301991D01*
X110394868Y-103000000D01*
X109236860Y-104158009D01*
X109193552Y-104193551D01*
X109051717Y-104366377D01*
X108995384Y-104471770D01*
X108946324Y-104563554D01*
X108881423Y-104777502D01*
X108859509Y-105000000D01*
X108865001Y-105055761D01*
X108865000Y-106034893D01*
X108846525Y-106053368D01*
X108684010Y-106296589D01*
X108572068Y-106566842D01*
X108515000Y-106853740D01*
X108515000Y-107146260D01*
X108572068Y-107433158D01*
X108684010Y-107703411D01*
X108846525Y-107946632D01*
X108978380Y-108078487D01*
X108905820Y-108100498D01*
X108795506Y-108159463D01*
X108698815Y-108238815D01*
X108619463Y-108335506D01*
X108582317Y-108405000D01*
X108135000Y-108405000D01*
X108135000Y-102055752D01*
X108140491Y-102000000D01*
X108118577Y-101777501D01*
X108053676Y-101563553D01*
X107948284Y-101366377D01*
X107888182Y-101293143D01*
X107806449Y-101193551D01*
X107763140Y-101158009D01*
X106301996Y-99696865D01*
X106266449Y-99653551D01*
X106093623Y-99511716D01*
X105896447Y-99406324D01*
X105682499Y-99341423D01*
X105515752Y-99325000D01*
X105515751Y-99325000D01*
X105460000Y-99319509D01*
X105404249Y-99325000D01*
X101965107Y-99325000D01*
X101946632Y-99306525D01*
X101764466Y-99184805D01*
X101881355Y-99115178D01*
X102097588Y-98920269D01*
X102271641Y-98686920D01*
X102396825Y-98424099D01*
X102417210Y-98356891D01*
X106478519Y-98356891D01*
X106575843Y-98631252D01*
X106724822Y-98881355D01*
X106919731Y-99097588D01*
X107153080Y-99271641D01*
X107415901Y-99396825D01*
X107563110Y-99441476D01*
X107793000Y-99320155D01*
X107793000Y-98127000D01*
X106599186Y-98127000D01*
X106478519Y-98356891D01*
X102417210Y-98356891D01*
X102441476Y-98276890D01*
X102320155Y-98047000D01*
X101127000Y-98047000D01*
X101127000Y-98067000D01*
X100873000Y-98067000D01*
X100873000Y-98047000D01*
X99679845Y-98047000D01*
X99558524Y-98276890D01*
X99603175Y-98424099D01*
X99728359Y-98686920D01*
X99902412Y-98920269D01*
X100118645Y-99115178D01*
X100235534Y-99184805D01*
X100053368Y-99306525D01*
X99846525Y-99513368D01*
X99684010Y-99756589D01*
X99572068Y-100026842D01*
X99515000Y-100313740D01*
X99515000Y-100606260D01*
X99572068Y-100893158D01*
X99684010Y-101163411D01*
X99846525Y-101406632D01*
X99978380Y-101538487D01*
X99905820Y-101560498D01*
X99795506Y-101619463D01*
X99698815Y-101698815D01*
X99619463Y-101795506D01*
X99560498Y-101905820D01*
X99524188Y-102025518D01*
X99511928Y-102150000D01*
X95660000Y-102150000D01*
X95660000Y-97563110D01*
X99558524Y-97563110D01*
X99679845Y-97793000D01*
X100873000Y-97793000D01*
X100873000Y-96599186D01*
X101127000Y-96599186D01*
X101127000Y-97793000D01*
X102320155Y-97793000D01*
X102399257Y-97643109D01*
X106478519Y-97643109D01*
X106599186Y-97873000D01*
X107793000Y-97873000D01*
X107793000Y-96679845D01*
X107563110Y-96558524D01*
X107415901Y-96603175D01*
X107153080Y-96728359D01*
X106919731Y-96902412D01*
X106724822Y-97118645D01*
X106575843Y-97368748D01*
X106478519Y-97643109D01*
X102399257Y-97643109D01*
X102441476Y-97563110D01*
X102396825Y-97415901D01*
X102271641Y-97153080D01*
X102097588Y-96919731D01*
X101881355Y-96724822D01*
X101631252Y-96575843D01*
X101356891Y-96478519D01*
X101127000Y-96599186D01*
X100873000Y-96599186D01*
X100643109Y-96478519D01*
X100368748Y-96575843D01*
X100118645Y-96724822D01*
X99902412Y-96919731D01*
X99728359Y-97153080D01*
X99603175Y-97415901D01*
X99558524Y-97563110D01*
X95660000Y-97563110D01*
X95660000Y-95660000D01*
X213340000Y-95660000D01*
X213340001Y-123340000D01*
G37*
%TD.AperFunction*%
%TD*%
M02*
