M48
; DRILL file {KiCad (5.1.9)-1} date 03/26/21 23:07:07
; FORMAT={-:-/ absolute / metric / decimal}
; #@! TF.CreationDate,2021-03-26T23:07:07+01:00
; #@! TF.GenerationSoftware,Kicad,Pcbnew,(5.1.9)-1
; #@! TF.FileFunction,Plated,1,2,PTH
FMAT,2
METRIC
T1C0.800
T2C0.900
T3C1.000
%
G90
G05
T1
X117.68Y-103.0
X123.68Y-98.0
X138.0Y-103.0
X144.0Y-98.0
T2
X118.0Y-110.0
X118.0Y-118.0
X120.54Y-110.0
X120.54Y-118.0
X138.0Y-110.0
X138.0Y-118.0
X140.54Y-110.0
X140.54Y-118.0
X159.0Y-118.0
X161.54Y-118.0
X180.0Y-118.0
X182.54Y-118.0
X201.0Y-118.0
X203.54Y-118.0
T3
X101.0Y-97.92
X101.0Y-100.46
X101.0Y-103.0
X107.92Y-98.0
X110.0Y-107.0
X110.0Y-109.54
X110.0Y-116.46
X110.0Y-119.0
X110.46Y-98.0
X113.0Y-98.0
X150.0Y-109.46
X150.0Y-112.0
X156.0Y-108.0
X158.54Y-108.0
X161.08Y-108.0
X163.62Y-108.0
X166.16Y-108.0
X175.0Y-108.46
X175.0Y-111.0
X182.0Y-108.46
X182.0Y-111.0
X183.0Y-100.0
X185.54Y-100.0
X188.08Y-100.0
X190.62Y-100.0
T0
M30
